<svg width="1200" height="1200" viewBox="0 0 1200 1200" fill="none" xmlns="http://www.w3.org/2000/svg">
<path d="M1079.76 956.376H1000.27V956.976H1079.76V956.376Z" fill="#EBEBEB"/>
<path d="M794.928 962.904H774.072V963.504H794.928V962.904Z" fill="#EBEBEB"/>
<path d="M997.872 934.104H951.816V934.704H997.872V934.104Z" fill="#EBEBEB"/>
<path d="M229.56 938.136H125.904V938.736H229.56V938.136Z" fill="#EBEBEB"/>
<path d="M266.136 938.136H250.944V938.736H266.136V938.136Z" fill="#EBEBEB"/>
<path d="M540.36 948.264H315.528V948.864H540.36V948.264Z" fill="#EBEBEB"/>
<path d="M572.16 810.72H108.72C105.086 810.72 101.6 809.276 99.0299 806.706C96.4599 804.136 95.0161 800.651 95.0161 797.016V145.584C95.0478 141.97 96.5055 138.515 99.0721 135.971C101.639 133.427 105.106 132 108.72 132H572.16C573.96 132 575.742 132.354 577.404 133.043C579.067 133.732 580.578 134.741 581.85 136.014C583.123 137.286 584.132 138.797 584.821 140.46C585.51 142.122 585.864 143.904 585.864 145.704V797.016C585.864 798.816 585.51 800.598 584.821 802.26C584.132 803.923 583.123 805.434 581.85 806.706C580.578 807.979 579.067 808.988 577.404 809.677C575.742 810.366 573.96 810.72 572.16 810.72ZM108.72 132.48C105.247 132.486 101.917 133.869 99.4612 136.325C97.0051 138.781 95.6225 142.111 95.6161 145.584V797.016C95.6225 800.489 97.0051 803.819 99.4612 806.275C101.917 808.731 105.247 810.114 108.72 810.12H572.16C575.634 810.114 578.963 808.731 581.419 806.275C583.875 803.819 585.258 800.489 585.264 797.016V145.584C585.258 142.111 583.875 138.781 581.419 136.325C578.963 133.869 575.634 132.486 572.16 132.48H108.72Z" fill="#EBEBEB"/>
<path d="M1091.28 810.72H627.84C624.205 810.72 620.72 809.276 618.15 806.706C615.58 804.136 614.136 800.651 614.136 797.016V145.584C614.167 141.97 615.625 138.515 618.192 135.971C620.758 133.427 624.226 132 627.84 132H1091.28C1094.91 132 1098.4 133.444 1100.97 136.014C1103.54 138.584 1104.98 142.069 1104.98 145.704V797.016C1104.98 800.651 1103.54 804.136 1100.97 806.706C1098.4 809.276 1094.91 810.72 1091.28 810.72ZM627.84 132.48C624.366 132.486 621.037 133.869 618.581 136.325C616.125 138.781 614.742 142.111 614.736 145.584V797.016C614.742 800.489 616.125 803.819 618.581 806.275C621.037 808.731 624.366 810.114 627.84 810.12H1091.28C1094.75 810.114 1098.08 808.731 1100.54 806.275C1102.99 803.819 1104.38 800.489 1104.38 797.016V145.584C1104.38 142.111 1102.99 138.781 1100.54 136.325C1098.08 133.869 1094.75 132.486 1091.28 132.48H627.84Z" fill="#EBEBEB"/>
<path d="M1200 917.76H0V918.36H1200V917.76Z" fill="#EBEBEB"/>
<path d="M589.2 162.648H345.096C332.186 162.648 321.72 173.114 321.72 186.024V602.136C321.72 615.046 332.186 625.512 345.096 625.512H589.2C602.11 625.512 612.576 615.046 612.576 602.136V186.024C612.576 173.114 602.11 162.648 589.2 162.648Z" fill="#F0F0F0"/>
<path d="M605.256 432.552V585.024C605.256 589.562 603.453 593.915 600.244 597.124C597.035 600.333 592.682 602.136 588.144 602.136H367.608C363.072 602.13 358.723 600.325 355.515 597.117C352.307 593.909 350.502 589.56 350.496 585.024V432.552H605.256Z" fill="#E0E0E0"/>
<path d="M605.256 196.8V432.48H350.4V196.8C350.4 192.262 352.203 187.909 355.412 184.7C358.621 181.491 362.974 179.688 367.512 179.688H588.048C590.303 179.675 592.539 180.109 594.626 180.963C596.713 181.817 598.611 183.076 600.21 184.666C601.809 186.256 603.078 188.147 603.944 190.229C604.81 192.312 605.256 194.545 605.256 196.8Z" fill="#FAFAFA"/>
<path d="M526.944 603.84H493.056C489.84 603.84 486.754 602.564 484.478 600.292C482.201 598.019 480.919 594.937 480.912 591.72V547.2C480.906 543.382 481.652 539.601 483.109 536.072C484.565 532.543 486.704 529.336 489.401 526.635C492.098 523.933 495.301 521.79 498.828 520.327C502.354 518.865 506.134 518.112 509.952 518.112C513.772 518.109 517.555 518.859 521.084 520.32C524.613 521.781 527.819 523.924 530.519 526.626C533.219 529.328 535.359 532.536 536.817 536.067C538.275 539.597 539.022 543.38 539.016 547.2V591.648C539.029 594.865 537.765 597.955 535.502 600.241C533.238 602.527 530.161 603.821 526.944 603.84Z" fill="#EBEBEB"/>
<path d="M539.016 538.872H480.888V583.584H539.016V538.872Z" fill="#FAFAFA"/>
<path d="M530.376 504.36H490.872V514.248H530.376V504.36Z" fill="#FAFAFA"/>
<path d="M527.616 514.248H493.776V521.088H527.616V514.248Z" fill="#F0F0F0"/>
<path d="M606.216 407.208H345.696V432.552H606.216V407.208Z" fill="#F0F0F0"/>
<path d="M526.632 179.76L463.032 406.248H524.88L588.144 179.76H526.632Z" fill="white"/>
<path d="M459.456 179.76L395.856 406.248H426.936L490.224 179.76H459.456Z" fill="white"/>
<path d="M1051.34 187.008H974.568C964.454 187.008 956.256 195.207 956.256 205.32V282.096C956.256 292.209 964.454 300.408 974.568 300.408H1051.34C1061.46 300.408 1069.66 292.209 1069.66 282.096V205.32C1069.66 195.207 1061.46 187.008 1051.34 187.008Z" fill="#F5F5F5"/>
<path d="M1051.34 367.872H974.568C964.454 367.872 956.256 376.071 956.256 386.184V462.96C956.256 473.073 964.454 481.272 974.568 481.272H1051.34C1061.46 481.272 1069.66 473.073 1069.66 462.96V386.184C1069.66 376.071 1061.46 367.872 1051.34 367.872Z" fill="#F5F5F5"/>
<path d="M1051.34 548.76H974.568C964.454 548.76 956.256 556.959 956.256 567.072V643.848C956.256 653.961 964.454 662.16 974.568 662.16H1051.34C1061.46 662.16 1069.66 653.961 1069.66 643.848V567.072C1069.66 556.959 1061.46 548.76 1051.34 548.76Z" fill="#F5F5F5"/>
<path d="M592.584 457.728C592.104 456.576 728.952 320.712 728.952 320.712L728.448 320.112C737.568 307.392 741.816 288.912 741.816 288.912L749.016 272.112C750.888 267.764 751.452 262.964 750.638 258.301C749.824 253.637 747.667 249.312 744.432 245.856L740.592 241.776C740.028 241.164 739.427 240.586 738.792 240.048L741.312 239.328C741.312 239.328 742.704 238.464 747.984 240.768C754.416 243.576 754.56 238.944 754.824 238.104C755.28 236.496 740.832 231.552 740.112 231.36C739.392 231.168 719.64 233.76 719.64 233.76C719.64 233.76 719.376 234.096 719.232 234.24C715.891 234.731 712.689 235.916 709.833 237.718C706.977 239.52 704.53 241.9 702.648 244.704L691.2 261.768L689.304 303.024C649.152 329.112 549.744 399.024 533.736 416.376C529.775 421.462 526.544 427.076 524.136 433.056C519.463 444.914 517.958 457.784 519.768 470.4C521.319 480.709 524.35 490.741 528.768 500.184C545.832 540.984 709.968 676.752 709.968 676.752L758.52 569.016C658.92 512.76 592.584 457.728 592.584 457.728Z" fill="#FF8B7B"/>
<path d="M703.512 671.928L601.344 588.384L666.816 508.464L763.56 554.904L703.512 671.928Z" fill="#26315F"/>
<path opacity="0.2" d="M611.16 592.608L707.712 641.952L699.672 666.96L609.432 595.176L611.16 592.608Z" fill="black"/>
<path d="M684.744 500.496L657.36 493.104L587.064 591.456L607.608 615.312L684.744 500.496Z" fill="#26315F"/>
<path opacity="0.6" d="M684.744 500.496L657.36 493.104L587.064 591.456L607.608 615.312L684.744 500.496Z" fill="white"/>
<path d="M1048.46 586.512C1045.27 597.072 1037.04 671.64 1027.94 696.912C1012.85 738.912 955.488 976.296 953.976 987.432C953.976 987.432 770.016 994.128 688.608 985.872C658.104 656.736 741.816 554.928 741.816 554.928C741.816 554.928 754.512 556.032 789.384 555.072C793.992 554.928 798.648 554.904 803.4 554.952C834.072 555.264 883.968 561.432 918.336 566.544C925.536 567.648 932.856 568.944 939.936 570.288C976.08 577.296 1048.46 586.512 1048.46 586.512Z" fill="#26315F"/>
<g opacity="0.9">
<path d="M712.8 987.72L709.2 918.672C698.4 667.44 760.8 559.512 763.56 554.904H770.4L777.048 555.336C776.4 556.416 710.64 670.992 721.176 918.096L725.016 988.368L712.8 987.72Z" fill="white"/>
</g>
<g opacity="0.9">
<path d="M883.2 989.256L879.456 918.672C868.728 667.44 930.024 561.072 932.76 556.44L945.816 557.976L940.8 554.904L945.96 557.976C945.312 559.08 881.016 670.992 891.576 918.096L895.104 989.016L883.2 989.256Z" fill="white"/>
</g>
<path d="M813.216 655.296C816.901 655.296 819.888 652.309 819.888 648.624C819.888 644.939 816.901 641.952 813.216 641.952C809.531 641.952 806.544 644.939 806.544 648.624C806.544 652.309 809.531 655.296 813.216 655.296Z" fill="#263238"/>
<path d="M789.288 864.288C792.973 864.288 795.96 861.301 795.96 857.616C795.96 853.931 792.973 850.944 789.288 850.944C785.603 850.944 782.616 853.931 782.616 857.616C782.616 861.301 785.603 864.288 789.288 864.288Z" fill="#263238"/>
<path d="M918.696 436.056C908.088 472.296 894.696 539.256 918.312 566.544C897.552 584.136 867.912 597.912 826.512 592.824C794.76 588.912 795.168 566.424 803.4 554.928C845.52 549.264 847.224 518.568 842.664 489.12L918.696 436.056Z" fill="#FF8B7B"/>
<path d="M825.6 592.8C825.6 592.8 836.088 609.408 848.664 626.088C870.72 617.256 922.872 592.92 923.952 565.2C922.104 556.896 911.952 550.8 911.952 550.8C885.605 569.338 856.449 583.519 825.6 592.8Z" fill="#26315F"/>
<path d="M825.6 592.8C814.218 600.441 803.959 609.634 795.12 620.112C781.224 607.968 795.384 557.712 801.672 552.72C814.68 546.36 822.84 548.136 822.84 548.136C822.84 548.136 802.344 584.136 825.6 592.8Z" fill="#26315F"/>
<g opacity="0.9">
<path d="M825.6 592.8C825.6 592.8 836.088 609.408 848.664 626.088C870.72 617.256 922.872 592.92 923.952 565.2C922.104 556.896 911.952 550.8 911.952 550.8C885.605 569.338 856.449 583.519 825.6 592.8Z" fill="white"/>
<path d="M825.6 592.8C814.218 600.441 803.959 609.634 795.12 620.112C781.224 607.968 795.384 557.712 801.672 552.72C814.68 546.36 822.84 548.136 822.84 548.136C822.84 548.136 802.344 584.136 825.6 592.8Z" fill="white"/>
</g>
<path opacity="0.2" d="M887.688 457.728L842.712 489.096C843.87 495.955 844.432 502.901 844.392 509.856C860.352 509.16 883.56 494.064 886.728 477.744C888.312 469.608 888.696 461.688 887.688 457.728Z" fill="black"/>
<path d="M938.4 390.624C924.624 439.008 919.008 468.048 888.72 487.56C843.12 516.864 787.536 480.36 786.576 428.808C785.736 382.296 808.416 310.968 860.712 302.472C912.168 294.12 952.128 342.24 938.4 390.624Z" fill="#FF8B7B"/>
<path d="M908.928 478.2C898.32 485.544 921.648 422.712 921.648 422.712C905.136 396.312 923.28 352.896 923.28 352.896C922.248 339.288 893.832 314.304 877.68 321.912C857.232 331.512 841.44 323.784 829.56 317.112L828.696 316.608C808.392 304.008 807.336 265.824 822.12 237.888C828.792 225.312 838.68 214.8 851.472 209.664C902.184 189.264 919.896 290.136 941.928 293.064C977.016 297.72 991.008 315.048 977.928 343.896C1013.74 384.432 934.272 460.656 908.928 478.2Z" fill="#263238"/>
<path opacity="0.2" d="M845.976 219.384C833.42 229.514 824.569 243.514 820.8 259.2C817.132 274.934 819.832 291.48 828.312 305.232C819.36 281.736 825.912 250.92 844.32 233.832C846.751 231.951 848.769 229.59 850.248 226.896C851.52 223.992 848.76 220.8 845.976 219.384Z" fill="white"/>
<path d="M876.144 315.288C877.536 315.288 878.376 316.8 878.832 318.12C880.414 322.098 880.558 326.503 879.24 330.576C878.529 332.56 877.228 334.279 875.512 335.501C873.796 336.724 871.747 337.392 869.64 337.416C874.44 334.56 875.832 331.56 877.344 325.944C877.848 323.64 878.256 316.44 876.144 315.288Z" fill="#263238"/>
<path d="M845.88 318.648C844.632 317.616 842.76 318.336 841.368 319.176C837.004 321.533 833.607 325.346 831.768 329.952C830.909 332.259 830.789 334.777 831.426 337.155C832.062 339.533 833.423 341.654 835.32 343.224C833.184 337.152 834.12 333.408 836.952 327.336C838.176 324.816 843.144 318.096 845.88 318.648Z" fill="#263238"/>
<path d="M864.624 382.464C863.76 386.472 860.928 389.208 858.312 388.608C855.696 388.008 854.304 384.288 855.192 380.28C856.08 376.272 858.888 373.536 861.504 374.136C864.12 374.736 865.512 378.48 864.624 382.464Z" fill="#263238"/>
<path d="M819.504 372C818.616 375.984 815.784 378.744 813.192 378.144C810.6 377.544 809.16 373.824 810.048 369.816C810.936 365.808 813.744 363.072 816.36 363.672C818.976 364.272 820.368 368.088 819.504 372Z" fill="#263238"/>
<path d="M828 382.152C828 382.152 813.816 402.216 801.36 410.664C806.952 418.512 819.624 418.248 819.624 418.248L828 382.152Z" fill="#FF5652"/>
<path d="M823.392 440.976C821.614 440.807 819.85 440.519 818.112 440.112C817.957 440.078 817.811 440.014 817.681 439.923C817.551 439.832 817.44 439.716 817.356 439.582C817.271 439.448 817.213 439.299 817.187 439.143C817.16 438.986 817.164 438.826 817.2 438.672C817.234 438.52 817.297 438.377 817.387 438.25C817.477 438.123 817.591 438.015 817.723 437.933C817.854 437.85 818.001 437.794 818.154 437.769C818.308 437.743 818.464 437.749 818.616 437.784C823.551 439.049 828.716 439.123 833.686 438.001C838.655 436.878 843.287 434.591 847.2 431.328C847.428 431.107 847.734 430.983 848.052 430.983C848.37 430.983 848.675 431.107 848.904 431.328C849.016 431.44 849.106 431.572 849.166 431.719C849.227 431.865 849.259 432.022 849.259 432.18C849.259 432.338 849.227 432.495 849.166 432.642C849.106 432.788 849.016 432.92 848.904 433.032C845.432 436.048 841.372 438.311 836.981 439.678C832.589 441.046 827.962 441.487 823.392 440.976Z" fill="#263238"/>
<path d="M881.76 371.568C881.331 371.532 880.921 371.382 880.57 371.133C880.22 370.883 879.943 370.545 879.768 370.152C878.586 367.362 876.768 364.887 874.46 362.924C872.151 360.962 869.416 359.566 866.472 358.848C866.158 358.804 865.855 358.698 865.582 358.536C865.309 358.375 865.071 358.16 864.881 357.906C864.691 357.651 864.554 357.362 864.477 357.054C864.4 356.746 864.384 356.426 864.432 356.112C864.479 355.8 864.587 355.5 864.75 355.23C864.913 354.959 865.127 354.724 865.382 354.536C865.636 354.349 865.924 354.214 866.231 354.138C866.537 354.063 866.856 354.048 867.168 354.096C870.912 354.928 874.404 356.64 877.354 359.089C880.305 361.539 882.63 364.657 884.136 368.184C884.397 368.76 884.42 369.417 884.2 370.01C883.98 370.603 883.534 371.086 882.96 371.352C882.585 371.526 882.172 371.601 881.76 371.568Z" fill="#263238"/>
<path d="M803.472 352.56C803.032 352.531 802.608 352.382 802.248 352.129C801.887 351.875 801.603 351.528 801.427 351.124C801.251 350.719 801.19 350.275 801.25 349.838C801.31 349.401 801.489 348.99 801.768 348.648C804.072 345.624 807.069 343.197 810.506 341.572C813.943 339.948 817.72 339.173 821.52 339.312C821.838 339.339 822.147 339.429 822.43 339.577C822.712 339.725 822.963 339.928 823.166 340.174C823.369 340.419 823.522 340.703 823.614 341.009C823.706 341.314 823.737 341.635 823.704 341.952C823.643 342.581 823.337 343.16 822.851 343.564C822.366 343.969 821.741 344.166 821.112 344.112C818.095 344 815.097 344.631 812.381 345.949C809.665 347.268 807.314 349.233 805.536 351.672C805.29 351.977 804.974 352.218 804.614 352.372C804.254 352.527 803.862 352.592 803.472 352.56Z" fill="#263238"/>
<path d="M813.6 603.504C813.6 603.504 791.04 576.336 782.136 580.368C776.376 582.96 775.248 600.744 773.856 606.912C772.464 613.08 766.296 625.512 770.808 630.312C777.168 637.008 806.136 619.608 806.136 619.608L820.08 620.808C820.08 620.808 849.216 647.208 857.736 642.408C863.328 639.24 860.136 621.672 861.576 615.384C863.16 608.184 874.872 596.616 870.24 590.784C863.616 582.48 823.536 604.248 823.536 604.248L813.6 603.504Z" fill="#263238"/>
<path opacity="0.8" d="M823.584 375.264C823.584 375.264 804.384 363.768 791.04 367.44C777.696 371.112 777.744 392.904 779.04 397.056C781.584 405.72 791.904 409.776 802.752 404.928C813.6 400.08 823.584 375.264 823.584 375.264Z" fill="black"/>
<path opacity="0.8" d="M830.616 377.304C830.616 377.304 857.232 379.176 868.656 390.024C880.08 400.872 867.288 418.968 863.568 421.68C855.864 427.344 842.88 424.632 834.576 414.216C826.272 403.8 830.616 377.304 830.616 377.304Z" fill="black"/>
<path d="M833.328 381.864C825.96 376.536 821.328 377.976 821.04 378.048L819.912 374.832C820.176 374.832 826.392 372.624 835.344 379.104L833.328 381.864Z" fill="#263238"/>
<path d="M866.04 392.352L867 389.064L877.8 392.208L931.632 400.992L931.08 404.352L877.032 395.544L866.04 392.352Z" fill="#263238"/>
<path d="M782.849 365.439L781.896 368.712L790.93 371.341L791.882 368.069L782.849 365.439Z" fill="#263238"/>
<path opacity="0.5" d="M793.632 369.84C789.955 371.872 786.838 374.782 784.56 378.312C780.672 383.76 781.512 392.328 781.512 392.328L801.096 370.728C800.054 369.907 798.806 369.389 797.489 369.233C796.172 369.076 794.837 369.286 793.632 369.84Z" fill="white"/>
<path opacity="0.5" d="M845.184 383.184C840.866 385.964 837.079 389.491 834 393.6C832.881 395.373 832.209 397.392 832.042 399.482C831.875 401.572 832.217 403.671 833.04 405.6L852.648 384C851.599 383.19 850.347 382.686 849.03 382.542C847.713 382.398 846.382 382.62 845.184 383.184Z" fill="white"/>
<path opacity="0.5" d="M833.4 382.512L833.16 388.704C833.16 388.704 838.296 382.296 841.152 381.312C841.152 381.312 833.28 378.048 833.4 382.512Z" fill="white"/>
<path d="M948.312 435.672C945.155 441.08 940.956 445.808 935.959 449.582C930.962 453.355 925.265 456.1 919.2 457.656C902.976 461.688 895.2 447 900 431.832C904.32 418.2 917.952 399.672 934.104 402.336C950.256 405 955.968 422.208 948.312 435.672Z" fill="#FF8B7B"/>
<path opacity="0.2" d="M1043.78 640.992C1034.59 677.808 1014.38 737.424 1002.98 786.24C987.984 719.52 965.52 638.4 965.52 638.4L981.6 609.912L1021.61 631.272L1043.78 640.992Z" fill="black"/>
<path opacity="0.1" d="M1047.7 601.656L1021.97 716.4C1021.97 716.4 908.184 651.6 879.984 624.936C842.856 589.824 885.72 372.936 885.72 372.936C862.848 365.736 888.648 312.024 888.648 312.024L894.816 270.624L933.216 267.624L950.448 305.544L931.416 384.744L937.176 574.968L1047.7 601.656Z" fill="black"/>
<path d="M1023.86 576.36L944.664 557.16L938.904 366.936L957.936 287.736L940.8 249.888L893.784 261.6L892.8 288.528C892.8 288.528 875.64 356.52 898.512 363.84C898.512 363.84 855.648 580.728 892.776 615.84C909.576 631.8 957.72 658.416 993.576 677.184C998.434 679.754 1003.83 681.131 1009.33 681.203C1014.83 681.274 1020.26 680.037 1025.18 677.594C1030.11 675.151 1034.38 671.572 1037.65 667.152C1040.91 662.733 1043.08 657.599 1043.98 652.176L1050.02 615.72C1051.46 607.066 1049.56 598.19 1044.7 590.884C1039.85 583.579 1032.4 578.388 1023.86 576.36Z" fill="#FF8B7B"/>
<path d="M947.184 553.056C947.184 553.056 953.712 590.928 951.624 609.936C949.536 628.944 945.12 650.736 935.016 663.528C935.016 663.528 986.832 698.856 1019.9 698.856C1048.46 698.856 1079.9 620.232 1060.85 589.8C1041.79 559.368 996.36 562.488 947.184 553.056Z" fill="#26315F"/>
<path d="M945.6 545.04C945.6 545.04 948 582.6 942.576 605.232C937.152 627.864 923.616 667.632 923.616 667.632L956.184 684.264C969.37 660.379 977.406 633.996 979.776 606.816C982.752 563.928 972.336 547.656 972.336 547.656L945.6 545.04Z" fill="#26315F"/>
<path opacity="0.6" d="M945.6 545.04C945.6 545.04 948 582.6 942.576 605.232C937.152 627.864 923.616 667.632 923.616 667.632L956.184 684.264C969.37 660.379 977.406 633.996 979.776 606.816C982.752 563.928 972.336 547.656 972.336 547.656L945.6 545.04Z" fill="white"/>
<path d="M770.232 252.336L759.288 302.736L752.736 301.32L740.616 298.68L719.016 294L721.944 280.488L729.96 243.504C730.397 241.464 731.589 239.664 733.296 238.464C734.256 237.763 735.353 237.274 736.516 237.03C737.678 236.786 738.88 236.792 740.04 237.048L763.752 242.184C765.94 242.667 767.848 243.995 769.062 245.878C770.276 247.762 770.696 250.048 770.232 252.24V252.336Z" fill="#263238"/>
<path opacity="0.4" d="M766.2 245.712C766.032 246.528 760.2 246.024 753.144 244.632C746.088 243.24 740.496 241.464 740.664 240.672C740.832 239.88 746.664 240.336 753.72 241.752C760.776 243.168 766.368 244.92 766.2 245.712Z" fill="black"/>
<path d="M759.288 302.832L759.168 303.36L731.088 432.72C730.795 434.068 730.179 435.326 729.293 436.383C728.407 437.441 727.277 438.268 726 438.792C724.419 439.442 722.677 439.593 721.008 439.224L697.32 434.088C696.23 433.852 695.198 433.403 694.282 432.767C693.366 432.131 692.584 431.32 691.982 430.382C691.38 429.443 690.969 428.394 690.773 427.297C690.577 426.199 690.6 425.073 690.84 423.984L707.64 346.08L710.64 332.28L711.72 327.288L718.92 294.096L740.52 298.776L752.64 301.416L759.288 302.832Z" fill="#263238"/>
<path opacity="0.6" d="M759.288 302.832L759.168 303.36L731.088 432.72C730.795 434.068 730.179 435.326 729.293 436.383C728.407 437.441 727.277 438.268 726 438.792C724.419 439.442 722.677 439.593 721.008 439.224L697.32 434.088C696.23 433.852 695.198 433.403 694.282 432.767C693.366 432.131 692.584 431.32 691.982 430.382C691.38 429.443 690.969 428.394 690.773 427.297C690.577 426.199 690.6 425.073 690.84 423.984L707.64 346.08L710.64 332.28L711.72 327.288L718.92 294.096L740.52 298.776L752.64 301.416L759.288 302.832Z" fill="white"/>
<path d="M765.6 255.096C765.605 256.231 765.273 257.343 764.645 258.289C764.018 259.236 763.124 259.975 762.076 260.412C761.028 260.85 759.874 260.967 758.76 260.749C757.646 260.53 756.622 259.986 755.817 259.184C755.012 258.383 754.464 257.361 754.24 256.248C754.017 255.135 754.129 253.98 754.563 252.931C754.996 251.881 755.731 250.984 756.675 250.352C757.619 249.721 758.729 249.384 759.864 249.384C760.616 249.381 761.362 249.526 762.058 249.812C762.753 250.098 763.386 250.518 763.919 251.048C764.452 251.579 764.875 252.21 765.163 252.905C765.452 253.599 765.6 254.344 765.6 255.096Z" fill="white"/>
<path d="M759.864 256.536C760.66 256.536 761.304 255.891 761.304 255.096C761.304 254.301 760.66 253.656 759.864 253.656C759.069 253.656 758.424 254.301 758.424 255.096C758.424 255.891 759.069 256.536 759.864 256.536Z" fill="#26315F"/>
<path opacity="0.2" d="M739.368 248.88L729.336 295.368L729.216 295.896L722.664 294.48L722.784 293.952L732.72 248.016C733.009 246.669 733.624 245.413 734.511 244.358C735.398 243.304 736.53 242.483 737.808 241.968C738.559 242.935 739.088 244.056 739.357 245.25C739.627 246.445 739.631 247.684 739.368 248.88Z" fill="white"/>
<path opacity="0.4" d="M729 297.144L700.92 426.504C700.627 427.852 700.011 429.11 699.125 430.167C698.239 431.225 697.109 432.052 695.832 432.576C695.081 431.604 694.552 430.48 694.282 429.281C694.013 428.083 694.009 426.84 694.272 425.64L722.4 295.728L729 297.144Z" fill="white"/>
<path d="M734.736 460.608C733.268 460.597 731.802 460.501 730.344 460.32C723.417 459.504 716.585 458.017 709.944 455.88C709.832 455.845 709.728 455.787 709.638 455.711C709.548 455.635 709.474 455.542 709.42 455.437C709.366 455.332 709.334 455.217 709.325 455.1C709.316 454.982 709.331 454.864 709.368 454.752C709.445 454.529 709.606 454.344 709.816 454.236C710.026 454.129 710.27 454.107 710.496 454.176C717.014 456.292 723.728 457.747 730.536 458.52C734.021 459.066 737.582 458.854 740.976 457.896C750.576 454.68 749.304 442.464 749.232 441.936C749.236 441.714 749.321 441.5 749.471 441.336C749.621 441.172 749.826 441.068 750.048 441.044C750.269 441.021 750.491 441.079 750.672 441.208C750.854 441.337 750.982 441.527 751.032 441.744C751.032 441.888 752.472 455.928 741.432 459.6C739.268 460.289 737.008 460.629 734.736 460.608Z" fill="#26315F"/>
<path d="M731.16 451.728C728.674 451.564 726.237 450.963 723.96 449.952C723.74 449.866 723.562 449.698 723.463 449.483C723.365 449.268 723.354 449.023 723.432 448.8C723.523 448.578 723.696 448.4 723.915 448.301C724.134 448.203 724.382 448.193 724.608 448.272C726.67 449.204 728.88 449.765 731.136 449.928C732.152 449.983 733.164 449.775 734.076 449.325C734.988 448.876 735.769 448.199 736.344 447.36C737.137 445.471 737.639 443.472 737.832 441.432C737.844 441.315 737.879 441.202 737.935 441.098C737.991 440.995 738.067 440.904 738.159 440.83C738.25 440.757 738.355 440.702 738.468 440.669C738.581 440.637 738.699 440.627 738.816 440.64C738.934 440.649 739.049 440.682 739.154 440.737C739.259 440.792 739.352 440.868 739.426 440.96C739.5 441.052 739.555 441.159 739.586 441.273C739.617 441.387 739.625 441.507 739.608 441.624C739.405 443.91 738.83 446.148 737.904 448.248C737.176 449.361 736.172 450.266 734.99 450.876C733.808 451.486 732.489 451.779 731.16 451.728Z" fill="#26315F"/>
<path d="M716.448 230.4H716.281C716.165 230.38 716.055 230.337 715.957 230.274C715.858 230.211 715.773 230.129 715.706 230.034C715.639 229.938 715.592 229.83 715.567 229.715C715.542 229.601 715.54 229.483 715.56 229.368C716.016 226.968 716.544 224.568 717.168 222.168C718.015 218.462 719.653 214.983 721.968 211.968C729.336 203.088 741.936 209.568 742.056 209.568C742.234 209.695 742.36 209.881 742.412 210.093C742.464 210.305 742.438 210.528 742.339 210.723C742.241 210.917 742.075 211.07 741.874 211.153C741.672 211.236 741.448 211.244 741.24 211.176C740.76 210.936 729.792 205.368 723.36 213.12C721.236 215.969 719.754 219.244 719.016 222.72C718.392 225.12 717.864 227.52 717.432 229.92C717.342 230.096 717.198 230.238 717.021 230.324C716.843 230.411 716.642 230.437 716.448 230.4Z" fill="#26315F"/>
<path d="M725.472 229.752C725.237 229.752 725.011 229.658 724.844 229.492C724.678 229.325 724.584 229.1 724.584 228.864C724.488 226.428 724.804 223.994 725.52 221.664C725.948 220.39 726.699 219.249 727.7 218.353C728.702 217.456 729.919 216.836 731.232 216.552C733.524 216.457 735.816 216.725 738.024 217.344C738.138 217.376 738.244 217.429 738.337 217.502C738.429 217.574 738.507 217.664 738.565 217.767C738.623 217.869 738.66 217.982 738.674 218.099C738.689 218.216 738.68 218.335 738.648 218.448C738.617 218.561 738.563 218.668 738.491 218.76C738.418 218.853 738.328 218.931 738.226 218.989C738.123 219.047 738.01 219.084 737.893 219.098C737.776 219.112 737.658 219.104 737.544 219.072C735.577 218.524 733.538 218.274 731.496 218.328C730.508 218.548 729.594 219.019 728.841 219.696C728.088 220.373 727.523 221.233 727.2 222.192C726.534 224.35 726.25 226.608 726.36 228.864C726.36 229.1 726.267 229.325 726.1 229.492C725.934 229.658 725.708 229.752 725.472 229.752Z" fill="#26315F"/>
<path opacity="0.2" d="M829.488 317.016C823.947 321.666 819.005 326.987 814.776 332.856L759.864 255.096L822.048 237.792C807.264 265.728 807.792 304.416 829.488 317.016Z" fill="black"/>
<path d="M1044.94 948.216H156.12C144.854 948.216 135.72 957.349 135.72 968.616V977.136C135.72 988.403 144.854 997.536 156.12 997.536H1044.94C1056.2 997.536 1065.34 988.403 1065.34 977.136V968.616C1065.34 957.349 1056.2 948.216 1044.94 948.216Z" fill="#263238"/>
<path opacity="0.7" d="M1044.94 948.216H156.12C144.854 948.216 135.72 957.349 135.72 968.616V977.136C135.72 988.403 144.854 997.536 156.12 997.536H1044.94C1056.2 997.536 1065.34 988.403 1065.34 977.136V968.616C1065.34 957.349 1056.2 948.216 1044.94 948.216Z" fill="white"/>
<path d="M570.936 871.704L554.64 730.944L555.648 659.808L558.456 659.952L557.448 730.872L573.96 874.056L570.936 871.704Z" fill="#263238"/>
<path d="M557.328 730.536L555.336 732.504C552.461 729.309 549.844 725.891 547.512 722.28C542.956 715.135 537.503 708.601 531.288 702.84L533.112 700.728C539.545 706.636 545.191 713.347 549.912 720.696C552.137 724.155 554.615 727.445 557.328 730.536Z" fill="#263238"/>
<path d="M556.8 711.456C560.463 710.001 563.48 707.274 565.296 703.776C567.036 699.694 567.926 695.301 567.912 690.864C563.112 692.88 557.736 691.152 552.768 692.328C550.785 692.811 548.939 693.744 547.374 695.055C545.809 696.366 544.567 698.02 543.744 699.888C541.656 704.688 541.2 709.992 543.744 711.888C545.856 713.256 552 713.376 556.8 711.456Z" fill="#26315F"/>
<path d="M536.928 703.968C534.836 705.645 532.406 706.849 529.803 707.495C527.201 708.142 524.49 708.216 521.856 707.712C516.6 706.656 514.224 699.24 511.68 694.536C517.873 693.179 524.182 692.423 530.52 692.28C531.859 692.193 533.2 692.406 534.446 692.905C535.692 693.403 536.811 694.174 537.72 695.16C538.562 696.179 539.01 697.465 538.984 698.787C538.958 700.108 538.458 701.376 537.576 702.36C537.408 702.336 536.928 703.968 536.928 703.968Z" fill="#26315F"/>
<path d="M514.824 714.936C516.589 712.686 518.83 710.855 521.386 709.573C523.942 708.291 526.749 707.59 529.608 707.52C531.927 707.654 534.18 708.34 536.18 709.521C538.18 710.703 539.868 712.345 541.104 714.312C540.543 715.851 539.578 717.21 538.312 718.249C537.045 719.288 535.523 719.967 533.904 720.216C530.619 720.639 527.285 720.46 524.064 719.688C520.855 718.895 517.526 718.708 514.248 719.136L514.824 714.936Z" fill="#26315F"/>
<path d="M549.864 654.36C548.339 651.107 547.242 647.671 546.6 644.136C545.326 637.973 543.082 632.051 539.952 626.592C539.233 624.954 538.216 623.465 536.952 622.2C534.914 620.701 532.423 619.946 529.896 620.064C529.267 619.977 528.626 620.027 528.017 620.209C527.409 620.391 526.846 620.702 526.368 621.12C525.962 621.619 525.689 622.214 525.576 622.848C525.12 624.884 525.24 627.006 525.923 628.977C526.605 630.948 527.823 632.69 529.44 634.008C528.317 633.097 527.073 632.346 525.744 631.776C524.437 631.15 522.955 630.989 521.544 631.32C520.523 631.677 519.626 632.319 518.958 633.169C518.291 634.02 517.88 635.044 517.776 636.12C517.713 637.199 517.867 638.28 518.23 639.299C518.593 640.317 519.157 641.252 519.888 642.048C521.363 643.631 523.176 644.862 525.192 645.648C523.2 645.648 520.248 646.368 519.264 648.048C518.801 648.985 518.61 650.032 518.712 651.072C518.637 652.396 518.869 653.719 519.389 654.939C519.91 656.159 520.705 657.242 521.712 658.104C522.819 658.766 524.04 659.213 525.312 659.424C524.458 661.369 524.158 663.512 524.448 665.616C524.64 666.635 525.061 667.598 525.681 668.43C526.301 669.261 527.102 669.941 528.024 670.416C529.731 671.055 531.572 671.253 533.376 670.992C539.76 670.656 543.432 662.808 547.32 657.744C548.04 656.976 548.88 654.984 549.864 654.36Z" fill="#26315F"/>
<path opacity="0.5" d="M549.864 654.36C548.339 651.107 547.242 647.671 546.6 644.136C545.326 637.973 543.082 632.051 539.952 626.592C539.233 624.954 538.216 623.465 536.952 622.2C534.914 620.701 532.423 619.946 529.896 620.064C529.267 619.977 528.626 620.027 528.017 620.209C527.409 620.391 526.846 620.702 526.368 621.12C525.962 621.619 525.689 622.214 525.576 622.848C525.12 624.884 525.24 627.006 525.923 628.977C526.605 630.948 527.823 632.69 529.44 634.008C528.317 633.097 527.073 632.346 525.744 631.776C524.437 631.15 522.955 630.989 521.544 631.32C520.523 631.677 519.626 632.319 518.958 633.169C518.291 634.02 517.88 635.044 517.776 636.12C517.713 637.199 517.867 638.28 518.23 639.299C518.593 640.317 519.157 641.252 519.888 642.048C521.363 643.631 523.176 644.862 525.192 645.648C523.2 645.648 520.248 646.368 519.264 648.048C518.801 648.985 518.61 650.032 518.712 651.072C518.637 652.396 518.869 653.719 519.389 654.939C519.91 656.159 520.705 657.242 521.712 658.104C522.819 658.766 524.04 659.213 525.312 659.424C524.458 661.369 524.158 663.512 524.448 665.616C524.64 666.635 525.061 667.598 525.681 668.43C526.301 669.261 527.102 669.941 528.024 670.416C529.731 671.055 531.572 671.253 533.376 670.992C539.76 670.656 543.432 662.808 547.32 657.744C548.04 656.976 548.88 654.984 549.864 654.36Z" fill="white"/>
<path d="M540 624.864C539.796 623.431 539.796 621.977 540 620.544C540.094 619.095 540.697 617.726 541.704 616.68C542.518 615.962 543.524 615.498 544.599 615.344C545.673 615.191 546.769 615.355 547.752 615.816C548.717 616.3 549.575 616.976 550.272 617.801C550.969 618.626 551.491 619.583 551.808 620.616C552.441 622.69 552.597 624.881 552.264 627.024C553.344 625.32 555.36 623.088 557.376 623.112C558.419 623.189 559.422 623.546 560.28 624.144C561.464 624.745 562.493 625.612 563.284 626.679C564.075 627.745 564.608 628.981 564.84 630.288C564.863 631.574 564.643 632.852 564.192 634.056C566.307 634.299 568.311 635.131 569.976 636.456C570.778 637.126 571.412 637.974 571.829 638.932C572.245 639.89 572.433 640.933 572.376 641.976C572.049 643.73 571.3 645.377 570.192 646.776C566.712 652.128 558.072 651.384 551.736 652.2C550.283 652.146 548.83 652.291 547.416 652.632L540 624.864Z" fill="#26315F"/>
<g opacity="0.6">
<path d="M540 624.864C539.796 623.431 539.796 621.977 540 620.544C540.094 619.095 540.697 617.726 541.704 616.68C542.518 615.962 543.524 615.498 544.599 615.344C545.673 615.191 546.769 615.355 547.752 615.816C548.717 616.3 549.575 616.976 550.272 617.801C550.969 618.626 551.491 619.583 551.808 620.616C552.441 622.69 552.597 624.881 552.264 627.024C553.344 625.32 555.36 623.088 557.376 623.112C558.419 623.189 559.422 623.546 560.28 624.144C561.464 624.745 562.493 625.612 563.284 626.679C564.075 627.745 564.608 628.981 564.84 630.288C564.863 631.574 564.643 632.852 564.192 634.056C566.307 634.299 568.311 635.131 569.976 636.456C570.778 637.126 571.412 637.974 571.829 638.932C572.245 639.89 572.433 640.933 572.376 641.976C572.049 643.73 571.3 645.377 570.192 646.776C566.712 652.128 558.072 651.384 551.736 652.2C550.283 652.146 548.83 652.291 547.416 652.632L540 624.864Z" fill="white"/>
</g>
<path d="M571.416 679.056C572.418 680.01 573.549 680.817 574.776 681.456C575.956 682.145 577.343 682.391 578.688 682.152C579.675 681.892 580.564 681.349 581.247 680.59C581.929 679.831 582.374 678.889 582.528 677.88C582.663 676.869 582.59 675.84 582.314 674.858C582.037 673.876 581.563 672.96 580.92 672.168C579.63 670.573 577.987 669.299 576.12 668.448C577.166 668.561 578.223 668.443 579.218 668.103C580.213 667.763 581.122 667.209 581.88 666.48C582.375 665.63 582.617 664.655 582.576 663.672C582.738 662.431 582.604 661.169 582.187 659.989C581.77 658.809 581.081 657.744 580.176 656.88C579.184 656.181 578.068 655.676 576.888 655.392C577.807 653.61 578.214 651.608 578.064 649.608C577.965 648.626 577.638 647.68 577.109 646.847C576.579 646.014 575.863 645.315 575.016 644.808C573.443 644.102 571.72 643.797 570 643.92C563.976 643.92 560.016 651.12 556.032 655.512C555.312 656.328 554.4 658.176 553.416 658.68L571.416 679.056Z" fill="#26315F"/>
<g opacity="0.5">
<path d="M571.416 679.056C572.418 680.01 573.549 680.817 574.776 681.456C575.956 682.145 577.343 682.391 578.688 682.152C579.675 681.892 580.564 681.349 581.247 680.59C581.929 679.831 582.374 678.889 582.528 677.88C582.663 676.869 582.59 675.84 582.314 674.858C582.037 673.876 581.563 672.96 580.92 672.168C579.63 670.573 577.987 669.299 576.12 668.448C577.166 668.561 578.223 668.443 579.218 668.103C580.213 667.763 581.122 667.209 581.88 666.48C582.375 665.63 582.617 664.655 582.576 663.672C582.738 662.431 582.604 661.169 582.187 659.989C581.77 658.809 581.081 657.744 580.176 656.88C579.184 656.181 578.068 655.676 576.888 655.392C577.807 653.61 578.214 651.608 578.064 649.608C577.965 648.626 577.638 647.68 577.109 646.847C576.579 646.014 575.863 645.315 575.016 644.808C573.443 644.102 571.72 643.797 570 643.92C563.976 643.92 560.016 651.12 556.032 655.512C555.312 656.328 554.4 658.176 553.416 658.68L571.416 679.056Z" fill="white"/>
</g>
<path d="M571.752 678.024C572.628 679.18 573.332 680.458 573.84 681.816C574.44 683.134 574.559 684.62 574.176 686.016C573.79 687.026 573.12 687.903 572.247 688.542C571.374 689.18 570.336 689.553 569.256 689.616C568.168 689.634 567.088 689.431 566.081 689.018C565.075 688.606 564.162 687.993 563.4 687.216C561.868 685.68 560.703 683.818 559.992 681.768C559.824 683.784 559.104 686.712 557.304 687.648C556.356 688.069 555.309 688.218 554.28 688.08C552.953 688.111 551.636 687.835 550.433 687.273C549.229 686.711 548.172 685.878 547.344 684.84C546.728 683.715 546.321 682.487 546.144 681.216C544.169 681.993 542.018 682.209 539.928 681.84C538.891 681.636 537.916 681.191 537.082 680.54C536.248 679.89 535.579 679.053 535.128 678.096C534.559 676.372 534.419 674.535 534.72 672.744C535.296 666.384 543.24 662.952 548.448 659.256C549.384 658.56 551.424 657.792 552.072 656.856L571.752 678.024Z" fill="#26315F"/>
<g opacity="0.6">
<path d="M571.752 678.024C572.628 679.18 573.332 680.458 573.84 681.816C574.44 683.134 574.559 684.62 574.176 686.016C573.79 687.026 573.12 687.903 572.247 688.542C571.374 689.18 570.336 689.553 569.256 689.616C568.168 689.634 567.088 689.431 566.081 689.018C565.075 688.606 564.162 687.993 563.4 687.216C561.868 685.68 560.703 683.818 559.992 681.768C559.824 683.784 559.104 686.712 557.304 687.648C556.356 688.069 555.309 688.218 554.28 688.08C552.953 688.111 551.636 687.835 550.433 687.273C549.229 686.711 548.172 685.878 547.344 684.84C546.728 683.715 546.321 682.487 546.144 681.216C544.169 681.993 542.018 682.209 539.928 681.84C538.891 681.636 537.916 681.191 537.082 680.54C536.248 679.89 535.579 679.053 535.128 678.096C534.559 676.372 534.419 674.535 534.72 672.744C535.296 666.384 543.24 662.952 548.448 659.256C549.384 658.56 551.424 657.792 552.072 656.856L571.752 678.024Z" fill="white"/>
</g>
<path d="M561.864 648.144C566.856 655.344 566.88 664.032 561.864 667.344C556.848 670.656 548.856 667.656 543.864 660.384C538.872 653.112 538.848 644.496 543.864 641.184C548.88 637.872 556.8 640.8 561.864 648.144Z" fill="#26315F"/>
<path opacity="0.8" d="M561.864 648.144C566.856 655.344 566.88 664.032 561.864 667.344C556.848 670.656 548.856 667.656 543.864 660.384C538.872 653.112 538.848 644.496 543.864 641.184C548.88 637.872 556.8 640.8 561.864 648.144Z" fill="white"/>
<path d="M604.92 705.144C608.412 707.647 611.058 711.155 612.504 715.2C614.4 721.392 603.912 730.56 603.912 730.56C603.912 730.56 595.728 734.472 588.96 729.96L582.216 725.448C582.216 725.448 598.248 705.84 604.344 706.608L604.92 705.144Z" fill="#26315F"/>
<path d="M573.6 699.84C571.032 709.968 575.28 723.984 584.304 726.24C593.328 728.496 603.768 718.248 606.36 708.12C608.952 697.992 601.68 695.784 592.656 693.48C583.632 691.176 576.288 689.736 573.6 699.84Z" fill="#26315F"/>
<path d="M601.056 701.232C601.056 701.232 593.136 705.672 579.24 700.032C579.24 700.032 599.52 718.968 601.056 701.232Z" fill="#26315F"/>
<path d="M595.2 698.184C595.2 698.184 587.352 695.448 586.68 698.808C586.68 698.808 579.888 697.296 581.304 694.584C582.72 691.872 595.2 698.184 595.2 698.184Z" fill="#26315F"/>
<path d="M599.28 732C597.342 734.057 594.87 735.535 592.141 736.268C589.411 737.001 586.532 736.961 583.824 736.152C581.133 735.284 578.653 733.864 576.542 731.984C574.43 730.104 572.734 727.804 571.56 725.232C569.28 720.055 568.451 714.356 569.16 708.744C569.304 707.28 569.784 703.68 571.752 703.44C573.72 703.2 574.152 705.84 574.872 707.088C576.578 710.725 578.67 714.169 581.112 717.36C583.528 720.472 586.298 723.291 589.368 725.76C590.16 726.504 598.608 732.792 599.28 732Z" fill="#26315F"/>
<path d="M563.304 705.072C562.112 707.033 561.44 709.266 561.352 711.559C561.264 713.852 561.762 716.129 562.8 718.176C564.352 720.752 566.39 723.002 568.8 724.8C570.408 726.144 572.496 727.536 574.416 726.696C576.336 725.856 576.816 723.024 576.696 720.768C576.696 717.312 576.384 713.832 576.096 710.376C575.856 707.544 576.096 702.912 574.968 700.344C573.84 697.776 571.464 698.88 568.944 700.08C566.624 701.168 564.666 702.901 563.304 705.072Z" fill="#26315F"/>
<path opacity="0.5" d="M612.504 715.2C611.387 711.886 609.407 708.928 606.768 706.632C608.232 697.824 601.296 695.712 592.752 693.528C584.208 691.344 576.6 689.808 573.888 699.288C572.616 698.496 570.792 699.288 568.848 700.176C567.241 700.929 565.803 702 564.622 703.325C563.44 704.649 562.54 706.2 561.974 707.882C561.409 709.565 561.191 711.345 561.333 713.114C561.475 714.883 561.974 716.605 562.8 718.176C564.352 720.752 566.39 723.002 568.8 724.8C569.866 725.794 571.16 726.511 572.568 726.888C575.051 731.285 579.107 734.578 583.92 736.104C586.61 736.9 589.468 736.938 592.178 736.214C594.888 735.49 597.346 734.032 599.28 732C599.28 732 598.944 732 598.608 732C600.436 731.777 602.222 731.292 603.912 730.56C603.912 730.56 614.4 721.392 612.504 715.2Z" fill="white"/>
<g opacity="0.2">
<path d="M601.056 701.232C601.056 701.232 593.136 705.672 579.24 700.032C579.24 700.032 599.52 718.968 601.056 701.232Z" fill="black"/>
</g>
<g opacity="0.2">
<path d="M595.2 698.184C595.2 698.184 587.352 695.448 586.68 698.808C586.68 698.808 579.888 697.296 581.304 694.584C582.72 691.872 595.2 698.184 595.2 698.184Z" fill="black"/>
</g>
<path opacity="0.2" d="M597.864 725.976C599.658 726.159 601.468 725.832 603.085 725.034C604.702 724.236 606.062 722.999 607.008 721.464C608.352 719.184 609.408 712.992 606.312 711.672C604.429 716.933 601.562 721.787 597.864 725.976Z" fill="#263238"/>
<path opacity="0.2" d="M574.008 721.8C572.414 721.032 571.033 719.884 569.987 718.457C568.941 717.03 568.261 715.367 568.008 713.616C567.744 711.696 570 702.408 572.136 706.824C572.832 708.264 571.992 712.344 572.136 714.024C572.452 716.681 573.08 719.291 574.008 721.8Z" fill="#263238"/>
<path opacity="0.2" d="M585.864 729.6C584.366 730.457 582.626 730.795 580.916 730.561C579.205 730.326 577.621 729.533 576.408 728.304C576.408 730.176 581.928 732.648 583.608 733.44C588 735.576 590.808 733.92 595.608 732.792C595.56 732.888 588.264 732.816 585.864 729.6Z" fill="#263238"/>
<path d="M562.896 919.8L585.408 779.88L585.216 736.2H582.408L582.6 779.712L559.752 922.008L562.896 919.8Z" fill="#263238"/>
<path d="M583.056 778.776L584.952 780.816C587.957 777.757 590.718 774.467 593.208 770.976C598.09 764.039 603.832 757.749 610.296 752.256L608.568 750.072C601.9 755.685 595.986 762.139 590.976 769.272C588.594 772.646 585.945 775.824 583.056 778.776Z" fill="#263238"/>
<path d="M584.448 759.744C580.847 758.133 577.955 755.267 576.312 751.68C574.745 747.53 574.043 743.103 574.248 738.672C578.856 740.904 584.424 739.416 589.32 740.808C591.279 741.38 593.081 742.393 594.588 743.77C596.094 745.147 597.264 746.852 598.008 748.752C599.88 753.696 600.096 758.976 597.456 760.752C595.2 762.024 589.2 761.88 584.448 759.744Z" fill="#26315F"/>
<path d="M604.608 753.144C606.625 754.914 609.003 756.224 611.576 756.983C614.15 757.741 616.858 757.93 619.512 757.536C624.792 756.744 627.504 749.424 630.24 744.84C624.114 743.21 617.845 742.173 611.52 741.744C610.205 741.616 608.878 741.779 607.633 742.223C606.389 742.667 605.257 743.38 604.32 744.312C603.435 745.293 602.931 746.56 602.9 747.881C602.87 749.202 603.314 750.491 604.152 751.512C604.2 751.488 604.608 753.144 604.608 753.144Z" fill="#26315F"/>
<path d="M626.208 765.072C624.542 762.759 622.389 760.838 619.901 759.445C617.414 758.052 614.651 757.22 611.808 757.008C609.49 757.03 607.21 757.602 605.157 758.679C603.104 759.756 601.336 761.305 600 763.2C600.496 764.777 601.413 766.19 602.652 767.285C603.891 768.38 605.406 769.117 607.032 769.416C610.285 770.015 613.619 770.015 616.872 769.416C620.123 768.804 623.461 768.804 626.712 769.416L626.208 765.072Z" fill="#26315F"/>
<path d="M584.28 806.928H554.904C553.835 806.907 552.787 807.236 551.921 807.864C551.055 808.492 550.417 809.385 550.104 810.408C547.704 818.016 542.568 838.056 542.568 869.616C542.568 904.272 551.592 930.72 554.448 944.304C554.674 945.414 555.273 946.413 556.147 947.134C557.021 947.855 558.116 948.254 559.248 948.264H579.696C580.828 948.249 581.92 947.849 582.793 947.129C583.666 946.409 584.267 945.412 584.496 944.304C587.328 930.72 596.376 904.272 596.376 869.616C596.376 838.056 591.24 818.016 588.816 810.408C588.511 809.431 587.911 808.573 587.099 807.95C586.287 807.327 585.303 806.97 584.28 806.928Z" fill="#263238"/>
<path d="M588.216 796.464H556.8C555.65 796.438 554.522 796.786 553.586 797.457C552.651 798.128 551.96 799.085 551.616 800.184C549.024 808.368 543.504 829.896 543.504 863.784C543.504 901.032 553.224 929.4 556.272 944.016C556.524 945.208 557.175 946.28 558.117 947.052C559.06 947.824 560.238 948.252 561.456 948.264H583.2C584.416 948.251 585.591 947.822 586.529 947.05C587.468 946.277 588.114 945.207 588.36 944.016C591.432 929.4 601.128 901.032 601.128 863.784C601.128 829.896 595.632 808.368 593.04 800.184C592.71 799.147 592.071 798.235 591.209 797.571C590.347 796.906 589.303 796.52 588.216 796.464Z" fill="#263238"/>
<path d="M158.904 947.208H158.064C156.562 946.977 155.214 946.16 154.314 944.936C153.414 943.713 153.036 942.182 153.264 940.68L193.056 671.568C193.166 670.823 193.422 670.106 193.809 669.46C194.197 668.813 194.707 668.25 195.312 667.801C195.917 667.351 196.605 667.026 197.336 666.843C198.067 666.659 198.826 666.622 199.572 666.732C200.317 666.842 201.034 667.098 201.68 667.486C202.326 667.873 202.89 668.383 203.339 668.988C203.788 669.594 204.114 670.281 204.297 671.012C204.481 671.743 204.518 672.503 204.408 673.248L164.592 942.312C164.385 943.673 163.698 944.915 162.655 945.813C161.611 946.712 160.281 947.206 158.904 947.208Z" fill="#26315F"/>
<path d="M194.784 672C194.784 677.28 196.752 681.6 199.176 681.6C201.6 681.6 203.568 677.304 203.568 672C203.568 666.696 201.6 662.4 199.2 662.4C196.8 662.4 194.784 666.624 194.784 672Z" fill="#263238"/>
<path d="M197.76 672C197.76 677.28 199.728 681.6 202.152 681.6C204.576 681.6 206.544 677.304 206.544 672C206.544 666.696 204.576 662.4 202.152 662.4C199.728 662.4 197.76 666.624 197.76 672Z" fill="#263238"/>
<path opacity="0.2" d="M197.76 672C197.76 677.28 199.728 681.6 202.152 681.6C204.576 681.6 206.544 677.304 206.544 672C206.544 666.696 204.576 662.4 202.152 662.4C199.728 662.4 197.76 666.624 197.76 672Z" fill="white"/>
<path d="M510.48 947.232H224.304L170.04 270.672H456.24L510.48 947.232Z" fill="#26315F"/>
<path opacity="0.4" d="M510.48 947.232H224.28L170.04 270.672H456.24L510.48 947.232Z" fill="white"/>
<path opacity="0.1" d="M459.192 910.944H256.488L207.864 311.952H410.592L459.192 910.944Z" fill="black"/>
<path opacity="0.4" d="M510.48 947.232H499.56L445.32 270.672H456.24L510.48 947.232Z" fill="white"/>
<path d="M450.48 947.208H159.864C158.343 947.208 156.884 946.604 155.808 945.528C154.732 944.452 154.128 942.993 154.128 941.472C154.128 939.951 154.732 938.492 155.808 937.416C156.884 936.34 158.343 935.736 159.864 935.736H440.664L478.008 678.096C478.099 677.337 478.34 676.603 478.719 675.938C479.097 675.274 479.605 674.691 480.211 674.226C480.818 673.76 481.512 673.42 482.252 673.227C482.992 673.033 483.763 672.99 484.52 673.098C485.277 673.207 486.004 673.466 486.66 673.861C487.315 674.255 487.885 674.776 488.336 675.394C488.787 676.011 489.11 676.713 489.286 677.458C489.462 678.202 489.487 678.974 489.36 679.728L450.48 947.208Z" fill="#26315F"/>
<path d="M477.72 672C477.72 677.28 479.688 681.6 482.112 681.6C484.536 681.6 486.504 677.304 486.504 672C486.504 666.696 484.536 662.4 482.112 662.4C479.688 662.4 477.72 666.624 477.72 672Z" fill="#263238"/>
<path d="M480.672 672C480.672 677.28 482.64 681.6 485.088 681.6C487.536 681.6 489.48 677.304 489.48 672C489.48 666.696 487.512 662.4 485.088 662.4C482.664 662.4 480.672 666.624 480.672 672Z" fill="#263238"/>
<path opacity="0.2" d="M480.672 672C480.672 677.28 482.64 681.6 485.088 681.6C487.536 681.6 489.48 677.304 489.48 672C489.48 666.696 487.512 662.4 485.088 662.4C482.664 662.4 480.672 666.624 480.672 672Z" fill="white"/>
</svg>
