<svg width="1200" height="1200" viewBox="0 0 1200 1200" fill="none" xmlns="http://www.w3.org/2000/svg">
<path d="M444.285 1023.43C510.999 1000.22 545.976 926.484 522.408 858.731C498.841 790.978 425.653 754.865 358.939 778.071C292.225 801.278 257.247 875.015 280.815 942.768C304.383 1010.52 377.571 1046.63 444.285 1023.43Z" fill="#EBEBEB"/>
<path d="M434.94 996.403C486.979 978.291 514.256 920.774 495.866 867.934C477.475 815.094 420.381 786.941 368.342 805.053C316.304 823.164 289.027 880.682 307.417 933.522C325.807 986.361 382.901 1014.51 434.94 996.403Z" fill="white"/>
<path d="M329.568 899.592C329.367 918.869 336.763 937.449 350.157 951.315C363.55 965.18 381.864 973.214 401.136 973.68C410.625 973.798 420.043 972.028 428.843 968.474C437.642 964.92 445.648 959.653 452.394 952.979C459.14 946.304 464.492 938.355 468.14 929.594C471.787 920.833 473.657 911.434 473.64 901.944C473.841 882.667 466.445 864.087 453.051 850.221C439.658 836.356 421.344 828.322 402.072 827.856C392.583 827.738 383.165 829.508 374.365 833.062C365.566 836.615 357.56 841.883 350.814 848.557C344.068 855.232 338.716 863.181 335.068 871.942C331.421 880.703 329.551 890.102 329.568 899.592Z" fill="#EBEBEB"/>
<path d="M357.744 900C357.621 911.735 362.121 923.048 370.273 931.491C378.424 939.935 389.572 944.83 401.304 945.12C407.082 945.19 412.817 944.111 418.175 941.947C423.533 939.783 428.407 936.575 432.516 932.512C436.624 928.448 439.884 923.609 442.107 918.275C444.33 912.941 445.471 907.219 445.464 901.44C445.587 889.7 441.084 878.384 432.927 869.94C424.77 861.496 413.617 856.603 401.88 856.32C396.104 856.253 390.372 857.334 385.017 859.5C379.662 861.666 374.79 864.873 370.684 868.937C366.578 873 363.32 877.838 361.099 883.171C358.878 888.503 357.737 894.223 357.744 900Z" fill="white"/>
<path d="M382.08 900.456C382.028 905.677 384.033 910.709 387.662 914.464C391.291 918.219 396.252 920.394 401.472 920.52C404.044 920.552 406.597 920.072 408.982 919.109C411.367 918.146 413.536 916.719 415.365 914.91C417.194 913.102 418.645 910.948 419.634 908.573C420.624 906.199 421.131 903.652 421.128 901.08C421.18 895.859 419.175 890.827 415.546 887.072C411.917 883.317 406.956 881.142 401.736 881.016C399.163 880.981 396.609 881.458 394.223 882.42C391.836 883.382 389.665 884.809 387.836 886.618C386.006 888.428 384.555 890.583 383.567 892.959C382.579 895.334 382.073 897.883 382.08 900.456Z" fill="#EBEBEB"/>
<path d="M402.624 901.2L536.736 830.664L535.728 828.72L401.592 899.232L402.624 901.2Z" fill="#EBEBEB"/>
<path d="M544.656 834.096L544.176 833.904L535.584 831.264L552.528 822.408L561.72 825.192L544.656 834.096Z" fill="#EBEBEB"/>
<path d="M554.568 811.536L551.52 820.464L534.576 829.32C535.918 826.478 536.925 823.49 537.576 820.416L554.568 811.536Z" fill="#EBEBEB"/>
<path d="M397.512 898.584L401.04 904.944L410.472 904.152L404.28 899.088L403.656 891.12L397.512 898.584Z" fill="#EBEBEB"/>
<path d="M837.936 871.872L853.776 846.384L845.952 841.584C844.837 840.876 843.937 839.874 843.353 838.689C842.769 837.503 842.522 836.18 842.64 834.864C842.784 833.373 842.832 831.873 842.784 830.376C842.752 829.059 843.082 827.758 843.738 826.616C844.394 825.473 845.351 824.532 846.504 823.896L854.616 819.552L840.408 793.152L832.32 797.496C831.156 798.123 829.839 798.411 828.519 798.326C827.2 798.241 825.93 797.787 824.856 797.016C823.626 796.151 822.352 795.35 821.04 794.616C819.882 793.983 818.92 793.043 818.26 791.901C817.6 790.758 817.266 789.455 817.296 788.136L817.584 778.944L787.56 778.008L787.2 787.2C787.135 788.518 786.708 789.792 785.968 790.884C785.227 791.976 784.2 792.844 783 793.392C782.352 793.704 781.68 794.04 781.032 794.4C780.384 794.76 779.736 795.12 779.112 795.48C777.99 796.157 776.703 796.515 775.392 796.515C774.081 796.515 772.795 796.157 771.672 795.48L763.8 790.68L747.96 816.192L755.784 820.992C756.9 821.7 757.799 822.702 758.383 823.887C758.967 825.073 759.214 826.396 759.096 827.712C758.984 829.2 758.936 830.688 758.952 832.176C758.984 833.493 758.654 834.794 757.998 835.936C757.343 837.079 756.386 838.02 755.232 838.656L747.12 843L761.328 869.4L769.416 865.056C770.585 864.445 771.899 864.166 773.215 864.251C774.532 864.335 775.799 864.78 776.88 865.536C778.1 866.404 779.365 867.205 780.672 867.936C781.835 868.566 782.801 869.504 783.466 870.647C784.131 871.79 784.468 873.094 784.44 874.416L784.176 883.632L814.176 884.568L814.464 875.352C814.527 874.037 814.95 872.764 815.687 871.672C816.423 870.58 817.444 869.711 818.64 869.16C819.288 868.848 819.96 868.512 820.608 868.152C821.256 867.792 821.904 867.432 822.552 867.072C823.68 866.385 824.975 866.022 826.296 866.022C827.617 866.022 828.912 866.385 830.04 867.072L837.936 871.872ZM812.544 852.936C808.256 855.237 803.382 856.214 798.538 855.744C793.695 855.275 789.099 853.379 785.333 850.297C781.567 847.215 778.8 843.085 777.381 838.43C775.963 833.775 775.957 828.804 777.364 824.145C778.771 819.487 781.529 815.351 785.287 812.259C789.046 809.168 793.637 807.261 798.479 806.78C803.322 806.299 808.198 807.264 812.492 809.555C816.785 811.845 820.303 815.358 822.6 819.648C825.678 825.396 826.347 832.131 824.462 838.373C822.576 844.615 818.29 849.853 812.544 852.936Z" fill="#DBDBDB"/>
<path d="M201.336 123.792L190.824 105.6L185.256 108.816C184.449 109.276 183.529 109.502 182.601 109.468C181.672 109.434 180.771 109.142 180 108.624C179.127 108.045 178.221 107.516 177.288 107.04C176.461 106.63 175.764 105.997 175.277 105.212C174.789 104.428 174.53 103.523 174.528 102.6V96.168H153.6V102.6C153.587 103.536 153.31 104.45 152.8 105.235C152.291 106.021 151.57 106.647 150.72 107.04C149.782 107.521 148.869 108.05 147.984 108.624C147.214 109.136 146.316 109.423 145.392 109.453C144.468 109.483 143.553 109.254 142.752 108.792L137.184 105.6L126.672 123.816L132.264 127.032C133.05 127.516 133.69 128.205 134.113 129.026C134.536 129.846 134.726 130.767 134.664 131.688C134.664 132.192 134.664 132.72 134.664 133.224C134.664 133.728 134.664 134.256 134.664 134.784C134.728 135.699 134.538 136.613 134.114 137.427C133.691 138.24 133.05 138.92 132.264 139.392L126.648 142.632L137.184 160.8L142.776 157.584C143.581 157.131 144.496 156.909 145.419 156.943C146.342 156.977 147.238 157.265 148.008 157.776C148.882 158.347 149.787 158.868 150.72 159.336C151.57 159.736 152.29 160.366 152.799 161.155C153.309 161.945 153.586 162.861 153.6 163.8V170.256H174.648V163.8C174.655 162.878 174.917 161.975 175.404 161.192C175.891 160.409 176.584 159.775 177.408 159.36C178.297 158.883 179.162 158.363 180 157.8C180.77 157.289 181.666 157.001 182.589 156.967C183.512 156.933 184.427 157.155 185.232 157.608L190.824 160.8L201.336 142.584L195.744 139.368C194.956 138.892 194.314 138.208 193.891 137.39C193.467 136.573 193.278 135.654 193.344 134.736C193.344 134.232 193.344 133.704 193.344 133.176C193.344 132.648 193.344 132.144 193.344 131.64C193.282 130.719 193.472 129.798 193.895 128.978C194.318 128.157 194.957 127.468 195.744 126.984L201.336 123.792ZM181.224 133.2C181.224 136.609 180.213 139.942 178.318 142.776C176.424 145.61 173.731 147.819 170.581 149.123C167.431 150.426 163.965 150.766 160.621 150.099C157.278 149.432 154.208 147.789 151.799 145.376C149.39 142.964 147.75 139.891 147.088 136.547C146.426 133.203 146.771 129.737 148.079 126.589C149.386 123.441 151.599 120.751 154.436 118.86C157.273 116.97 160.607 115.963 164.016 115.968C166.278 115.968 168.517 116.414 170.607 117.28C172.696 118.146 174.594 119.416 176.192 121.017C177.791 122.617 179.058 124.517 179.921 126.607C180.784 128.698 181.227 130.938 181.224 133.2Z" fill="#DBDBDB"/>
<path d="M974.784 886.68C958.583 886.68 942.747 891.484 929.276 900.485C915.806 909.485 905.307 922.278 899.107 937.246C892.908 952.213 891.285 968.683 894.446 984.572C897.607 1000.46 905.408 1015.06 916.864 1026.51C928.319 1037.97 942.914 1045.77 958.804 1048.93C974.693 1052.09 991.163 1050.47 1006.13 1044.27C1021.1 1038.07 1033.89 1027.57 1042.89 1014.1C1051.89 1000.63 1056.7 984.793 1056.7 968.592C1056.7 946.867 1048.07 926.033 1032.7 910.671C1017.34 895.31 996.509 886.68 974.784 886.68ZM974.784 1006.85C967.218 1006.85 959.821 1004.6 953.53 1000.4C947.239 996.197 942.336 990.222 939.44 983.232C936.545 976.241 935.787 968.549 937.263 961.128C938.739 953.708 942.383 946.891 947.733 941.541C953.083 936.191 959.9 932.547 967.321 931.071C974.742 929.595 982.434 930.352 989.424 933.248C996.414 936.143 1002.39 941.047 1006.59 947.338C1010.8 953.629 1013.04 961.026 1013.04 968.592C1013.04 973.617 1012.06 978.593 1010.13 983.236C1008.21 987.878 1005.4 992.097 1001.84 995.65C998.289 999.203 994.071 1002.02 989.428 1003.94C984.785 1005.86 979.809 1006.85 974.784 1006.85Z" fill="#EBEBEB"/>
<path d="M990.528 890.088H959.04L960.768 867.792H988.8L990.528 890.088Z" fill="#EBEBEB"/>
<path d="M930.576 900.696L908.304 922.968L893.76 905.976L913.584 886.152L930.576 900.696Z" fill="#EBEBEB"/>
<path d="M895.68 950.592V982.08L873.384 980.352V952.344L895.68 950.592Z" fill="#EBEBEB"/>
<path d="M906.288 1010.54L928.56 1032.82L911.568 1047.36L891.768 1027.54L906.288 1010.54Z" fill="#EBEBEB"/>
<path d="M956.208 1045.44H987.696L985.944 1067.74H957.936L956.208 1045.44Z" fill="#EBEBEB"/>
<path d="M1016.16 1034.83L1038.43 1012.56L1052.95 1029.55L1033.15 1049.35L1016.16 1034.83Z" fill="#EBEBEB"/>
<path d="M1051.03 984.912V953.424L1073.33 955.176V983.184L1051.03 984.912Z" fill="#EBEBEB"/>
<path d="M1040.42 924.96L1018.15 902.688L1035.14 888.168L1054.97 907.968L1040.42 924.96Z" fill="#EBEBEB"/>
<path d="M703.68 438.168C687.479 438.168 671.643 442.972 658.172 451.973C644.702 460.973 634.203 473.766 628.003 488.734C621.804 503.701 620.181 520.171 623.342 536.06C626.503 551.95 634.304 566.545 645.76 578C657.215 589.456 671.81 597.257 687.7 600.418C703.589 603.579 720.059 601.957 735.026 595.757C749.994 589.557 762.787 579.058 771.787 565.588C780.788 552.117 785.592 536.281 785.592 520.08C785.592 498.356 776.962 477.521 761.601 462.159C746.239 446.798 725.405 438.168 703.68 438.168ZM703.68 558.336C696.115 558.331 688.721 556.083 682.433 551.877C676.145 547.67 671.245 541.694 668.353 534.703C665.461 527.712 664.707 520.021 666.186 512.602C667.665 505.183 671.31 498.368 676.662 493.02C682.013 487.673 688.829 484.031 696.25 482.557C703.67 481.083 711.361 481.842 718.35 484.738C725.339 487.635 731.312 492.538 735.514 498.829C739.717 505.119 741.96 512.515 741.96 520.08C741.96 525.106 740.97 530.082 739.046 534.725C737.122 539.368 734.302 543.587 730.747 547.14C727.192 550.692 722.972 553.51 718.327 555.431C713.683 557.352 708.706 558.339 703.68 558.336Z" fill="#EBEBEB"/>
<path d="M719.424 441.576H687.936L689.688 419.28H717.696L719.424 441.576Z" fill="#EBEBEB"/>
<path d="M659.472 452.184L637.2 474.456L622.68 457.464L642.48 437.64L659.472 452.184Z" fill="#EBEBEB"/>
<path d="M624.6 502.08V533.592L602.304 531.84V503.832L624.6 502.08Z" fill="#EBEBEB"/>
<path d="M635.208 562.032L657.48 584.304L640.488 598.848L620.664 579.024L635.208 562.032Z" fill="#EBEBEB"/>
<path d="M685.104 596.928H716.592L714.864 619.224H686.856L685.104 596.928Z" fill="#EBEBEB"/>
<path d="M745.056 586.32L767.328 564.048L781.872 581.04L762.048 600.84L745.056 586.32Z" fill="#EBEBEB"/>
<path d="M779.952 536.424V504.912L802.248 506.664V534.672L779.952 536.424Z" fill="#EBEBEB"/>
<path d="M769.344 476.472L747.072 454.2L764.064 439.656L783.864 459.456L769.344 476.472Z" fill="#EBEBEB"/>
<path d="M117 1147.54C426.432 1146.05 773.568 1146.05 1083 1147.54C773.568 1149 426.432 1149 117 1147.54Z" fill="#263238"/>
<path d="M617.904 1147.51H567.144L578.4 111.048C578.544 97.944 584.304 87.456 591.384 87.456H592.536C599.616 87.456 605.376 97.92 605.544 111.024L617.904 1147.51Z" fill="#26315F"/>
<path opacity="0.4" d="M617.904 1147.51H567.144L578.4 111.048C578.544 97.944 584.304 87.456 591.384 87.456H592.536C599.616 87.456 605.376 97.92 605.544 111.024L617.904 1147.51Z" fill="black"/>
<g style="mix-blend-mode:multiply" opacity="0.3">
<path d="M587.472 127.32C584.472 250.8 581.736 374.52 585.288 498.048C586.008 525.744 588.888 555.96 589.872 583.488C591.6 735.528 568.608 887.4 581.928 1039.49C578.832 1001.59 577.416 963.552 577.392 925.512C576.48 811.392 591.096 697.632 588.72 583.536C587.64 556.08 584.88 525.744 584.208 498.096C580.92 374.568 583.656 250.896 587.472 127.344V127.32Z" fill="black"/>
<path d="M589.488 105.408C595.056 226.368 600.216 348.456 592.176 469.392L593.448 446.664C597.672 333.216 593.448 218.808 589.488 105.408Z" fill="black"/>
<path d="M583.776 928.8C592.968 854.856 599.496 780.576 601.92 706.104C603.214 668.876 602.188 631.604 598.848 594.504L595.824 572.352C603.624 616.464 603.576 661.488 603.024 706.128C600.637 780.643 594.227 854.976 583.824 928.8H583.776Z" fill="black"/>
<path d="M601.704 420.456C598.68 455.496 595.56 490.632 595.296 525.816C594.504 537.672 598.032 583.176 603.72 543.312C605.629 525.805 604.957 508.112 601.728 490.8C605.4 508.075 606.339 525.818 604.512 543.384C604.248 546.024 602.112 566.088 597.456 558.72C593.784 548.184 594.432 536.76 594.12 525.816C594.672 490.584 597.768 455.448 601.704 420.456Z" fill="black"/>
<path d="M605.376 800.904C601.296 853.896 597.432 907.056 589.608 959.664C587.418 977.239 586.496 994.949 586.848 1012.66C587.52 1025.71 587.616 1039.46 592.872 1051.58C606.192 1074.41 605.112 1005.77 604.872 1000.2C604.711 991.372 604.07 982.559 602.952 973.8C602.184 969.696 601.896 964.776 599.352 961.392C596.16 959.304 594.768 969.408 594.408 971.448C592.737 984.638 592.456 997.967 593.568 1011.22C594.12 1015.54 594.144 1020.24 596.28 1024.13C594.096 1020.26 594.024 1015.56 593.424 1011.24C592.536 1005.91 590.616 956.04 599.808 960.84C602.616 964.464 602.808 969.312 603.648 973.656C605.799 991.289 606.417 1009.08 605.496 1026.82C604.92 1032.98 604.632 1055.42 598.488 1057.34C595.248 1057.54 593.064 1054.54 591.84 1052.11C586.416 1039.78 586.224 1025.93 585.672 1012.7C584.88 986.016 588.456 959.544 592.416 933.24C597.792 889.248 601.488 845.064 605.328 800.928L605.376 800.904Z" fill="black"/>
<path d="M580.8 1147.51C577.512 1098.07 574.752 1043.64 573.048 994.104C576.336 1043.57 579.096 1098 580.8 1147.51Z" fill="black"/>
<path d="M594.193 1147.51C598.657 1127.14 597.985 1105.2 590.065 1085.78C582.145 1066.37 579.553 1044.98 577.705 1024.06C580.105 1044.79 582.865 1066.03 591.049 1085.38C598.992 1105.16 600.099 1127.03 594.193 1147.51Z" fill="black"/>
<path d="M605.376 836.184C603.72 875.136 602.976 914.328 607.08 953.16C610.831 978.944 612.931 1004.94 613.368 1030.99C613.639 1044.05 612.666 1057.1 610.464 1069.97C607.524 1082.64 605.63 1095.53 604.8 1108.51C603.84 1121.47 603.384 1134.5 603.648 1147.51C603.144 1134.5 603.312 1121.46 604.152 1108.46C604.909 1095.45 606.731 1082.52 609.6 1069.8C611.724 1056.99 612.616 1044 612.264 1031.02C611.838 1004.99 609.859 979.019 606.336 953.232C602.256 914.352 603.312 875.136 605.4 836.184H605.376Z" fill="black"/>
<path d="M595.584 88.128C597.504 114.36 599.352 155.808 600.576 182.376C601.392 213.816 602.976 245.328 601.104 276.744C602.088 215.856 597.72 149.184 595.584 88.128Z" fill="black"/>
</g>
<path d="M490.512 453.168L492.672 494.16L487.632 552.984L485.472 511.992L490.512 453.168Z" fill="#37474F"/>
<path d="M902.064 541.008L904.2 582L891.432 731.28L889.272 690.312L902.064 541.008Z" fill="#37474F"/>
<path d="M889.272 690.312L891.432 731.28L474.84 702.264L472.68 661.296L889.272 690.312Z" fill="#37474F"/>
<path d="M472.68 661.296L474.84 702.264L469.776 761.088L467.64 720.096L472.68 661.296Z" fill="#37474F"/>
<path d="M467.64 720.096L469.776 761.088L294.888 614.64L292.728 573.672L467.64 720.096Z" fill="#37474F"/>
<path d="M485.472 511.992L902.064 541.008L889.272 690.312L472.68 661.296L467.64 720.096L292.728 573.672L490.512 453.168L485.472 511.992Z" fill="#455A64"/>
<path d="M769.032 137.352L767.592 178.368L759.096 95.952L760.512 54.936L769.032 137.352Z" fill="#26315F"/>
<path d="M790.632 346.56L789.216 387.576L205.32 438.504L206.76 397.488L790.632 346.56Z" fill="#26315F"/>
<path d="M206.76 397.488L205.32 438.504L183.72 229.32L185.136 188.28L206.76 397.488Z" fill="#26315F"/>
<path d="M799.176 428.976L797.736 469.992L789.216 387.576L790.632 346.56L799.176 428.976Z" fill="#26315F"/>
<path d="M1041 219.168L1039.56 260.184L797.736 469.992L799.176 428.976L1041 219.168Z" fill="#26315F"/>
<g opacity="0.1">
<path d="M769.032 137.352L767.592 178.368L759.096 95.952L760.512 54.936L769.032 137.352Z" fill="black"/>
<path d="M790.632 346.56L789.216 387.576L205.32 438.504L206.76 397.488L790.632 346.56Z" fill="black"/>
<path d="M206.76 397.488L205.32 438.504L183.72 229.32L185.136 188.28L206.76 397.488Z" fill="black"/>
<path d="M799.176 428.976L797.736 469.992L789.216 387.576L790.632 346.56L799.176 428.976Z" fill="black"/>
<path d="M1041 219.168L1039.56 260.184L797.736 469.992L799.176 428.976L1041 219.168Z" fill="black"/>
</g>
<path d="M401.136 288.264L402.576 247.248H403.2C402.72 260.928 402.248 274.6 401.784 288.264H401.112H401.136Z" fill="#26315F"/>
<path d="M406.32 292.296C406.191 291.186 405.662 290.162 404.831 289.415C404 288.668 402.925 288.25 401.808 288.24C402.272 274.592 402.744 260.92 403.224 247.224C404.339 247.228 405.414 247.641 406.245 248.384C407.077 249.127 407.607 250.149 407.736 251.256C407.304 263.568 406.752 279.984 406.32 292.296Z" fill="#26315F"/>
<path d="M774.024 214.872C775.133 214.913 776.194 215.338 777.025 216.073C777.856 216.808 778.407 217.808 778.584 218.904C778.671 220.118 778.276 221.317 777.486 222.242C776.695 223.167 775.573 223.744 774.36 223.848L751.128 225.864L752.64 240.6L772.608 238.848H773.184C774.297 238.884 775.364 239.306 776.2 240.041C777.036 240.777 777.591 241.78 777.768 242.88C777.817 243.482 777.747 244.089 777.561 244.664C777.375 245.239 777.077 245.771 776.685 246.231C776.292 246.69 775.813 247.067 775.274 247.341C774.735 247.614 774.147 247.779 773.544 247.824L753.6 249.6L755.136 264.432L778.344 262.392H778.92C780.052 262.426 781.135 262.859 781.978 263.615C782.821 264.37 783.37 265.399 783.528 266.52C783.582 267.715 783.168 268.884 782.376 269.78C781.583 270.675 780.473 271.228 779.28 271.32L751.512 273.72H751.344C751.106 273.762 750.862 273.762 750.624 273.72C749.511 273.711 748.439 273.296 747.608 272.554C746.778 271.812 746.246 270.793 746.112 269.688L741.192 222.168C741.14 221.571 741.21 220.969 741.397 220.399C741.585 219.829 741.887 219.304 742.284 218.855C742.682 218.406 743.167 218.042 743.709 217.787C744.252 217.531 744.841 217.389 745.44 217.368H745.704L773.448 214.968L774.024 214.872Z" fill="white"/>
<path d="M646.32 226.032C647.438 226.056 648.513 226.469 649.359 227.201C650.204 227.933 650.768 228.937 650.952 230.04L655.752 277.56C655.811 278.772 655.387 279.958 654.572 280.858C653.758 281.758 652.62 282.298 651.408 282.36H650.76C649.643 282.35 648.568 281.932 647.737 281.185C646.906 280.438 646.377 279.414 646.248 278.304L641.424 230.88C641.372 230.282 641.441 229.681 641.629 229.111C641.817 228.541 642.119 228.016 642.516 227.567C642.914 227.118 643.399 226.754 643.941 226.499C644.484 226.243 645.073 226.1 645.672 226.08L646.32 226.032Z" fill="white"/>
<path d="M590.184 230.904C591.309 230.93 592.389 231.35 593.236 232.092C594.083 232.833 594.642 233.848 594.816 234.96L599.256 277.944L622.464 275.928H623.04C624.168 275.961 625.248 276.391 626.091 277.141C626.934 277.892 627.485 278.915 627.648 280.032C627.701 281.227 627.288 282.396 626.495 283.292C625.703 284.187 624.593 284.74 623.4 284.832L595.656 287.232H594.744C593.631 287.224 592.559 286.814 591.726 286.077C590.892 285.341 590.353 284.327 590.208 283.224L585.408 235.704C585.369 235.107 585.449 234.509 585.643 233.944C585.838 233.378 586.142 232.857 586.54 232.41C586.937 231.964 587.42 231.601 587.959 231.342C588.498 231.083 589.083 230.935 589.68 230.904H590.184Z" fill="white"/>
<path d="M560.496 233.52C561.617 233.558 562.688 233.987 563.526 234.732C564.363 235.477 564.913 236.492 565.08 237.6C565.134 238.795 564.72 239.964 563.928 240.86C563.135 241.755 562.025 242.308 560.832 242.4L537.624 244.44L539.136 259.176L559.104 257.448H559.68C560.794 257.484 561.86 257.906 562.696 258.641C563.532 259.377 564.087 260.38 564.264 261.48C564.31 262.082 564.236 262.688 564.047 263.261C563.858 263.835 563.558 264.366 563.163 264.823C562.768 265.28 562.287 265.655 561.747 265.926C561.207 266.196 560.619 266.357 560.016 266.4L540.048 268.128L541.584 282.96L564.816 280.92H565.368C566.5 280.954 567.583 281.387 568.426 282.143C569.269 282.898 569.818 283.927 569.976 285.048C570.03 286.243 569.616 287.412 568.824 288.308C568.031 289.203 566.921 289.756 565.728 289.848L537.984 292.248H537.816C537.578 292.288 537.335 292.288 537.096 292.248C535.98 292.239 534.905 291.826 534.071 291.084C533.237 290.343 532.7 289.323 532.56 288.216L527.64 240.72C527.595 240.122 527.67 239.521 527.862 238.953C528.054 238.384 528.358 237.861 528.757 237.413C529.156 236.965 529.64 236.602 530.183 236.345C530.725 236.089 531.313 235.944 531.912 235.92H532.176L559.896 233.52H560.496Z" fill="white"/>
<path d="M291.048 284.688C291.071 284.879 291.071 285.073 291.048 285.264V287.664V290.064L290.904 294.504C291.024 291.216 291.12 287.928 291.24 284.64L291.048 284.688Z" fill="#26315F"/>
<path d="M510.624 266.184C512.232 281.808 500.16 295.608 483.648 297.048L473.544 297.912H472.92C471.802 297.904 470.723 297.491 469.885 296.75C469.047 296.009 468.505 294.989 468.36 293.88L463.56 246.384C463.515 245.788 463.589 245.189 463.78 244.622C463.97 244.055 464.272 243.533 464.668 243.085C465.065 242.637 465.547 242.274 466.086 242.016C466.626 241.758 467.211 241.611 467.808 241.584L477.912 240.696C479.215 240.612 480.522 240.612 481.824 240.696C496.608 241.104 509.136 252 510.624 266.184ZM482.736 288.12C485.339 287.969 487.886 287.299 490.226 286.149C492.566 284.999 494.653 283.393 496.363 281.426C498.074 279.458 499.374 277.168 500.187 274.691C500.999 272.214 501.309 269.599 501.096 267C500.457 262.222 498.118 257.834 494.509 254.639C490.9 251.444 486.26 249.655 481.44 249.6C480.545 249.552 479.648 249.552 478.752 249.6L473.448 250.056L477.408 288.456L482.736 288" fill="white"/>
<path d="M435.96 244.368C437.082 244.393 438.159 244.81 439.005 245.546C439.851 246.283 440.413 247.293 440.592 248.4L445.392 295.896C445.425 296.495 445.338 297.095 445.139 297.66C444.939 298.226 444.63 298.747 444.228 299.192C443.827 299.638 443.342 300.001 442.8 300.259C442.258 300.517 441.671 300.665 441.072 300.696H440.4C439.284 300.697 438.206 300.286 437.374 299.542C436.541 298.798 436.012 297.774 435.888 296.664L431.088 249.144C431.043 248.546 431.118 247.945 431.31 247.377C431.502 246.808 431.806 246.285 432.205 245.837C432.603 245.389 433.088 245.026 433.63 244.769C434.173 244.513 434.761 244.368 435.36 244.344L435.96 244.368Z" fill="white"/>
<path d="M403.2 247.2C404.319 247.205 405.396 247.621 406.228 248.369C407.06 249.117 407.588 250.144 407.712 251.256L410.664 279.912C412.008 292.704 402.048 304.128 388.344 305.352C387.249 305.424 386.151 305.424 385.056 305.352C379.193 305.281 373.551 303.1 369.165 299.208C364.78 295.316 361.943 289.973 361.176 284.16L358.224 255.504C358.171 254.907 358.241 254.305 358.429 253.735C358.617 253.165 358.919 252.64 359.316 252.191C359.714 251.742 360.198 251.378 360.741 251.123C361.284 250.867 361.873 250.725 362.472 250.704H363.12C364.234 250.733 365.303 251.149 366.144 251.881C366.984 252.612 367.545 253.613 367.728 254.712L370.704 283.512C371.177 287.093 372.924 290.384 375.626 292.782C378.328 295.18 381.804 296.524 385.416 296.568C386.088 296.604 386.76 296.604 387.432 296.568C389.37 296.459 391.266 295.964 393.011 295.114C394.756 294.264 396.314 293.074 397.594 291.615C398.874 290.157 399.851 288.457 400.467 286.617C401.084 284.776 401.327 282.832 401.184 280.896L398.256 252C398.217 251.4 398.299 250.797 398.496 250.229C398.693 249.66 399.002 249.137 399.405 248.69C399.807 248.243 400.295 247.88 400.84 247.625C401.384 247.369 401.975 247.224 402.576 247.2H403.2Z" fill="white"/>
<path d="M314.04 253.608C319.701 253.8 325.216 255.454 330.048 258.408C330.597 258.705 331.078 259.112 331.461 259.604C331.844 260.096 332.121 260.662 332.274 261.266C332.427 261.871 332.454 262.5 332.352 263.115C332.249 263.73 332.021 264.318 331.68 264.84C331.185 265.525 330.525 266.075 329.762 266.44C328.999 266.805 328.157 266.972 327.312 266.928C326.462 266.891 325.635 266.635 324.912 266.184C321.54 264.187 317.718 263.072 313.8 262.944C312.842 262.873 311.879 262.873 310.92 262.944C305.227 263.295 299.904 265.883 296.112 270.144C294.287 272.073 292.899 274.373 292.042 276.887C291.185 279.401 290.878 282.069 291.144 284.712C291.461 287.351 292.322 289.895 293.673 292.184C295.024 294.472 296.835 296.456 298.992 298.008C302.705 300.88 307.236 302.494 311.928 302.616C312.96 302.675 313.993 302.675 315.024 302.616C319.114 302.236 323.043 300.833 326.448 298.536L325.296 287.496L313.032 288.576H312.432C311.257 288.585 310.119 288.163 309.234 287.389C308.349 286.614 307.779 285.542 307.632 284.376C307.603 283.772 307.694 283.168 307.9 282.599C308.105 282.03 308.421 281.508 308.829 281.062C309.237 280.616 309.73 280.255 310.278 280C310.827 279.745 311.42 279.601 312.024 279.576L328.824 278.088H329.688C330.846 278.075 331.969 278.481 332.851 279.23C333.733 279.98 334.315 281.023 334.488 282.168L336.336 300C336.375 300.455 336.375 300.913 336.336 301.368L336.192 301.8C335.994 302.666 335.491 303.432 334.776 303.96C329.527 308.56 322.94 311.353 315.984 311.928C314.57 312.012 313.151 312.012 311.736 311.928C296.136 311.376 282.936 300.432 281.4 285.648C279.744 269.472 292.608 255.336 310.008 253.824C311.347 253.673 312.693 253.601 314.04 253.608Z" fill="white"/>
<path d="M336.216 301.128C336.255 300.673 336.255 300.215 336.216 299.76L334.368 281.928C334.195 280.783 333.613 279.74 332.731 278.99C331.849 278.241 330.726 277.835 329.568 277.848H328.872L311.832 279.336C311.228 279.361 310.634 279.505 310.086 279.76C309.538 280.015 309.045 280.376 308.637 280.822C308.229 281.268 307.913 281.79 307.707 282.359C307.502 282.928 307.411 283.532 307.44 284.136C307.587 285.302 308.157 286.374 309.042 287.149C309.926 287.923 311.065 288.345 312.24 288.336H312.84L325.104 287.256L326.256 298.296C322.851 300.593 318.922 301.996 314.832 302.376C313.801 302.447 312.767 302.447 311.736 302.376C307.045 302.273 302.51 300.666 298.8 297.792C296.643 296.24 294.832 294.256 293.481 291.968C292.13 289.679 291.269 287.135 290.952 284.496C290.686 281.853 290.992 279.185 291.85 276.671C292.707 274.157 294.095 271.857 295.92 269.928C299.712 265.667 305.035 263.079 310.728 262.728C311.687 262.657 312.649 262.657 313.608 262.728C317.526 262.856 321.348 263.971 324.72 265.968C325.443 266.419 326.269 266.675 327.12 266.712C327.964 266.75 328.804 266.579 329.566 266.215C330.327 265.851 330.988 265.304 331.488 264.624C331.829 264.102 332.057 263.514 332.159 262.899C332.262 262.284 332.235 261.655 332.082 261.05C331.928 260.446 331.651 259.88 331.268 259.388C330.885 258.896 330.404 258.489 329.856 258.192C325.024 255.238 319.509 253.584 313.848 253.392C312.465 253.308 311.079 253.308 309.696 253.392C292.296 254.904 279.432 269.04 281.088 285.216C282.6 300 295.824 310.944 311.424 311.496C312.839 311.58 314.257 311.58 315.672 311.496C322.628 310.921 329.215 308.128 334.464 303.528C335.159 303.007 335.664 302.274 335.904 301.44L336.024 300.936M388.176 305.184C401.88 303.96 411.84 292.536 410.496 279.744L407.544 250.944C407.358 249.917 406.825 248.985 406.034 248.304C405.244 247.622 404.243 247.233 403.2 247.2H402.552C401.951 247.224 401.361 247.369 400.816 247.625C400.271 247.88 399.783 248.243 399.381 248.69C398.978 249.137 398.669 249.66 398.472 250.229C398.275 250.797 398.193 251.4 398.232 252L401.208 280.8C401.351 282.736 401.108 284.68 400.491 286.521C399.875 288.361 398.898 290.061 397.618 291.519C396.338 292.978 394.78 294.168 393.035 295.018C391.291 295.868 389.394 296.363 387.456 296.472C386.785 296.508 386.112 296.508 385.44 296.472C381.828 296.428 378.352 295.084 375.651 292.686C372.949 290.288 371.201 286.997 370.728 283.416L367.752 254.616C367.569 253.517 367.009 252.516 366.168 251.785C365.327 251.053 364.258 250.637 363.144 250.608H362.4C361.801 250.629 361.212 250.771 360.669 251.027C360.127 251.282 359.642 251.646 359.244 252.095C358.847 252.544 358.545 253.069 358.357 253.639C358.169 254.209 358.1 254.811 358.152 255.408L361.104 284.064C361.871 289.877 364.708 295.22 369.093 299.112C373.479 303.004 379.121 305.185 384.984 305.256C386.079 305.328 387.177 305.328 388.272 305.256M720 276.432C721.2 276.358 722.321 275.811 723.117 274.911C723.914 274.011 724.32 272.832 724.248 271.632L719.448 224.856C719.307 223.73 718.757 222.695 717.904 221.947C717.05 221.199 715.951 220.791 714.816 220.8C714.608 220.788 714.4 220.788 714.192 220.8C713.603 220.839 713.028 220.995 712.5 221.259C711.972 221.522 711.501 221.887 711.115 222.334C710.728 222.78 710.435 223.299 710.25 223.859C710.066 224.42 709.994 225.012 710.04 225.6L713.448 258.768L682.08 225.168C681.216 224.272 680.037 223.747 678.792 223.704C677.59 223.677 676.414 224.058 675.456 224.784C674.894 225.243 674.46 225.841 674.2 226.519C673.939 227.196 673.859 227.93 673.968 228.648L678.768 275.52C678.917 276.623 679.457 277.637 680.289 278.377C681.121 279.116 682.191 279.533 683.304 279.552H684C685.185 279.46 686.285 278.904 687.063 278.005C687.84 277.107 688.232 275.938 688.152 274.752L684.72 241.32L715.8 274.68L716.28 275.112C717.122 275.925 718.231 276.403 719.4 276.456H720M483.696 297.072C500.208 295.632 512.28 281.832 510.672 266.208C509.184 251.976 496.656 241.128 481.872 240.6C480.569 240.516 479.263 240.516 477.96 240.6L467.856 241.488C467.259 241.515 466.673 241.662 466.134 241.92C465.595 242.178 465.112 242.541 464.716 242.989C464.32 243.437 464.018 243.959 463.827 244.526C463.637 245.093 463.563 245.692 463.608 246.288L468.408 293.784C468.553 294.893 469.095 295.913 469.933 296.654C470.771 297.395 471.849 297.808 472.968 297.816H473.592L483.696 296.952M779.256 271.2C780.449 271.108 781.559 270.555 782.351 269.66C783.144 268.764 783.558 267.595 783.504 266.4C783.346 265.279 782.797 264.25 781.954 263.495C781.111 262.739 780.028 262.306 778.896 262.272H778.32L755.112 264.312L753.6 249.6L773.568 247.872C774.171 247.827 774.759 247.662 775.297 247.389C775.836 247.115 776.316 246.738 776.709 246.279C777.101 245.819 777.399 245.287 777.585 244.712C777.771 244.136 777.841 243.53 777.792 242.928C777.614 241.828 777.06 240.825 776.224 240.089C775.387 239.354 774.321 238.932 773.208 238.896H772.632L752.664 240.648L751.2 225.864L774.432 223.848C775.644 223.744 776.767 223.167 777.558 222.242C778.348 221.317 778.743 220.118 778.656 218.904C778.479 217.808 777.928 216.808 777.097 216.073C776.266 215.338 775.205 214.913 774.096 214.872H773.496L745.752 217.272H745.584C744.979 217.287 744.383 217.424 743.832 217.676C743.281 217.929 742.788 218.29 742.382 218.739C741.975 219.188 741.664 219.715 741.468 220.288C741.272 220.861 741.194 221.468 741.24 222.072L746.16 269.592C746.294 270.697 746.826 271.716 747.656 272.458C748.487 273.2 749.559 273.615 750.672 273.624H751.56L779.328 271.224M565.728 289.848C566.921 289.756 568.031 289.203 568.823 288.308C569.616 287.412 570.03 286.243 569.976 285.048C569.818 283.927 569.269 282.898 568.426 282.143C567.583 281.387 566.5 280.954 565.368 280.92H564.816L541.584 282.96L540.048 268.128L560.016 266.4C560.619 266.357 561.207 266.196 561.747 265.926C562.287 265.655 562.768 265.28 563.163 264.823C563.558 264.366 563.858 263.835 564.047 263.261C564.236 262.688 564.31 262.082 564.264 261.48C564.086 260.38 563.532 259.377 562.696 258.641C561.859 257.906 560.793 257.484 559.68 257.448H559.2L539.232 259.176L537.72 244.44L560.928 242.4C562.118 242.302 563.225 241.748 564.016 240.853C564.808 239.959 565.223 238.793 565.176 237.6C564.998 236.5 564.444 235.497 563.608 234.761C562.771 234.026 561.705 233.604 560.592 233.568H559.992L532.248 235.968H532.08C531.476 235.986 530.881 236.126 530.332 236.379C529.783 236.633 529.291 236.994 528.886 237.443C528.48 237.891 528.169 238.416 527.971 238.988C527.774 239.559 527.694 240.165 527.736 240.768L532.656 288.264C532.796 289.371 533.332 290.391 534.167 291.132C535.001 291.874 536.076 292.287 537.192 292.296H538.08L565.824 289.896M623.424 284.856C624.617 284.764 625.727 284.211 626.519 283.316C627.312 282.42 627.726 281.251 627.672 280.056C627.498 278.944 626.939 277.929 626.092 277.188C625.245 276.446 624.165 276.026 623.04 276H622.464L599.256 278.016L594.816 234.96C594.642 233.848 594.083 232.833 593.236 232.092C592.389 231.35 591.309 230.93 590.184 230.904H589.56C588.963 230.935 588.378 231.083 587.839 231.342C587.3 231.601 586.818 231.964 586.42 232.41C586.023 232.857 585.718 233.378 585.524 233.944C585.329 234.509 585.249 235.107 585.288 235.704L590.088 283.224C590.233 284.327 590.772 285.341 591.606 286.077C592.439 286.814 593.512 287.224 594.624 287.232H595.512L623.28 284.832M651.384 282.432C652.596 282.37 653.734 281.83 654.548 280.93C655.363 280.03 655.787 278.844 655.728 277.632L650.928 230.112C650.744 229.009 650.18 228.005 649.335 227.273C648.489 226.541 647.414 226.128 646.296 226.104H645.6C645.001 226.125 644.412 226.267 643.869 226.523C643.327 226.778 642.842 227.142 642.444 227.591C642.047 228.04 641.745 228.565 641.557 229.135C641.369 229.705 641.3 230.307 641.352 230.904L646.344 278.4C646.473 279.51 647.002 280.534 647.833 281.281C648.664 282.028 649.739 282.446 650.856 282.456H651.504M441.168 300.792C441.767 300.761 442.354 300.613 442.896 300.355C443.438 300.097 443.923 299.734 444.324 299.288C444.726 298.843 445.035 298.322 445.235 297.756C445.434 297.191 445.52 296.591 445.488 295.992L440.688 248.496C440.509 247.389 439.947 246.379 439.101 245.642C438.255 244.906 437.178 244.489 436.056 244.464H435.408C434.81 244.488 434.223 244.633 433.682 244.889C433.141 245.146 432.657 245.51 432.26 245.958C431.863 246.406 431.561 246.93 431.372 247.499C431.183 248.067 431.111 248.667 431.16 249.264L435.96 296.784C436.084 297.894 436.613 298.918 437.446 299.662C438.278 300.406 439.356 300.817 440.472 300.816H441.144M760.512 54.936L1041 219.168L799.2 428.976L790.656 346.56L206.76 397.488L185.16 188.304L769.032 137.352L760.512 54.936ZM482.736 288.12L477.408 288.576L473.448 250.176L478.752 249.72C479.647 249.672 480.545 249.672 481.44 249.72C486.267 249.777 490.912 251.573 494.523 254.777C498.133 257.982 500.467 262.382 501.096 267.168C501.285 269.753 500.958 272.35 500.135 274.808C499.311 277.266 498.007 279.535 496.299 281.485C494.591 283.434 492.512 285.025 490.184 286.164C487.855 287.303 485.324 287.968 482.736 288.12Z" fill="#26315F"/>
<g opacity="0.4">
<path d="M336.216 301.128C336.255 300.673 336.255 300.215 336.216 299.76L334.368 281.928C334.195 280.783 333.613 279.74 332.731 278.99C331.849 278.241 330.726 277.835 329.568 277.848H328.872L311.832 279.336C311.228 279.361 310.634 279.505 310.086 279.76C309.538 280.015 309.045 280.376 308.637 280.822C308.229 281.268 307.913 281.79 307.707 282.359C307.502 282.928 307.411 283.532 307.44 284.136C307.587 285.302 308.157 286.374 309.042 287.149C309.926 287.923 311.065 288.345 312.24 288.336H312.84L325.104 287.256L326.256 298.296C322.851 300.593 318.922 301.996 314.832 302.376C313.801 302.447 312.767 302.447 311.736 302.376C307.045 302.273 302.51 300.666 298.8 297.792C296.643 296.24 294.832 294.256 293.481 291.968C292.13 289.679 291.269 287.135 290.952 284.496C290.686 281.853 290.992 279.185 291.85 276.671C292.707 274.157 294.095 271.857 295.92 269.928C299.712 265.667 305.035 263.079 310.728 262.728C311.687 262.657 312.649 262.657 313.608 262.728C317.526 262.856 321.348 263.971 324.72 265.968C325.443 266.419 326.269 266.675 327.12 266.712C327.964 266.75 328.804 266.579 329.566 266.215C330.327 265.851 330.988 265.304 331.488 264.624C331.829 264.102 332.057 263.514 332.159 262.899C332.262 262.284 332.235 261.655 332.082 261.05C331.928 260.446 331.651 259.88 331.268 259.388C330.885 258.896 330.404 258.489 329.856 258.192C325.024 255.238 319.509 253.584 313.848 253.392C312.465 253.308 311.079 253.308 309.696 253.392C292.296 254.904 279.432 269.04 281.088 285.216C282.6 300 295.824 310.944 311.424 311.496C312.839 311.58 314.257 311.58 315.672 311.496C322.628 310.921 329.215 308.128 334.464 303.528C335.159 303.007 335.664 302.274 335.904 301.44L336.024 300.936M388.176 305.184C401.88 303.96 411.84 292.536 410.496 279.744L407.544 250.944C407.358 249.917 406.825 248.985 406.034 248.304C405.244 247.622 404.243 247.233 403.2 247.2H402.552C401.951 247.224 401.361 247.369 400.816 247.625C400.271 247.88 399.783 248.243 399.381 248.69C398.978 249.137 398.669 249.66 398.472 250.229C398.275 250.797 398.193 251.4 398.232 252L401.208 280.8C401.351 282.736 401.108 284.68 400.491 286.521C399.875 288.361 398.898 290.061 397.618 291.519C396.338 292.978 394.78 294.168 393.035 295.018C391.291 295.868 389.394 296.363 387.456 296.472C386.785 296.508 386.112 296.508 385.44 296.472C381.828 296.428 378.352 295.084 375.651 292.686C372.949 290.288 371.201 286.997 370.728 283.416L367.752 254.616C367.569 253.517 367.009 252.516 366.168 251.785C365.327 251.053 364.258 250.637 363.144 250.608H362.4C361.801 250.629 361.212 250.771 360.669 251.027C360.127 251.282 359.642 251.646 359.244 252.095C358.847 252.544 358.545 253.069 358.357 253.639C358.169 254.209 358.1 254.811 358.152 255.408L361.104 284.064C361.871 289.877 364.708 295.22 369.093 299.112C373.479 303.004 379.121 305.185 384.984 305.256C386.079 305.328 387.177 305.328 388.272 305.256M720 276.432C721.2 276.358 722.321 275.811 723.117 274.911C723.914 274.011 724.32 272.832 724.248 271.632L719.448 224.856C719.307 223.73 718.757 222.695 717.904 221.947C717.05 221.199 715.951 220.791 714.816 220.8C714.608 220.788 714.4 220.788 714.192 220.8C713.603 220.839 713.028 220.995 712.5 221.259C711.972 221.522 711.501 221.887 711.115 222.334C710.728 222.78 710.435 223.299 710.25 223.859C710.066 224.42 709.994 225.012 710.04 225.6L713.448 258.768L682.08 225.168C681.216 224.272 680.037 223.747 678.792 223.704C677.59 223.677 676.414 224.058 675.456 224.784C674.894 225.243 674.46 225.841 674.2 226.519C673.939 227.196 673.859 227.93 673.968 228.648L678.768 275.52C678.917 276.623 679.457 277.637 680.289 278.377C681.121 279.116 682.191 279.533 683.304 279.552H684C685.185 279.46 686.285 278.904 687.063 278.005C687.84 277.107 688.232 275.938 688.152 274.752L684.72 241.32L715.8 274.68L716.28 275.112C717.122 275.925 718.231 276.403 719.4 276.456H720M483.696 297.072C500.208 295.632 512.28 281.832 510.672 266.208C509.184 251.976 496.656 241.128 481.872 240.6C480.569 240.516 479.263 240.516 477.96 240.6L467.856 241.488C467.259 241.515 466.673 241.662 466.134 241.92C465.595 242.178 465.112 242.541 464.716 242.989C464.32 243.437 464.018 243.959 463.827 244.526C463.637 245.093 463.563 245.692 463.608 246.288L468.408 293.784C468.553 294.893 469.095 295.913 469.933 296.654C470.771 297.395 471.849 297.808 472.968 297.816H473.592L483.696 296.952M779.256 271.2C780.449 271.108 781.559 270.555 782.351 269.66C783.144 268.764 783.558 267.595 783.504 266.4C783.346 265.279 782.797 264.25 781.954 263.495C781.111 262.739 780.028 262.306 778.896 262.272H778.32L755.112 264.312L753.6 249.6L773.568 247.872C774.171 247.827 774.759 247.662 775.297 247.389C775.836 247.115 776.316 246.738 776.709 246.279C777.101 245.819 777.399 245.287 777.585 244.712C777.771 244.136 777.841 243.53 777.792 242.928C777.614 241.828 777.06 240.825 776.224 240.089C775.387 239.354 774.321 238.932 773.208 238.896H772.632L752.664 240.648L751.2 225.864L774.432 223.848C775.644 223.744 776.767 223.167 777.558 222.242C778.348 221.317 778.743 220.118 778.656 218.904C778.479 217.808 777.928 216.808 777.097 216.073C776.266 215.338 775.205 214.913 774.096 214.872H773.496L745.752 217.272H745.584C744.979 217.287 744.383 217.424 743.832 217.676C743.281 217.929 742.788 218.29 742.382 218.739C741.975 219.188 741.664 219.715 741.468 220.288C741.272 220.861 741.194 221.468 741.24 222.072L746.16 269.592C746.294 270.697 746.826 271.716 747.656 272.458C748.487 273.2 749.559 273.615 750.672 273.624H751.56L779.328 271.224M565.728 289.848C566.921 289.756 568.031 289.203 568.823 288.308C569.616 287.412 570.03 286.243 569.976 285.048C569.818 283.927 569.269 282.898 568.426 282.143C567.583 281.387 566.5 280.954 565.368 280.92H564.816L541.584 282.96L540.048 268.128L560.016 266.4C560.619 266.357 561.207 266.196 561.747 265.926C562.287 265.655 562.768 265.28 563.163 264.823C563.558 264.366 563.858 263.835 564.047 263.261C564.236 262.688 564.31 262.082 564.264 261.48C564.086 260.38 563.532 259.377 562.696 258.641C561.859 257.906 560.793 257.484 559.68 257.448H559.2L539.232 259.176L537.72 244.44L560.928 242.4C562.118 242.302 563.225 241.748 564.016 240.853C564.808 239.959 565.223 238.793 565.176 237.6C564.998 236.5 564.444 235.497 563.608 234.761C562.771 234.026 561.705 233.604 560.592 233.568H559.992L532.248 235.968H532.08C531.476 235.986 530.881 236.126 530.332 236.379C529.783 236.633 529.291 236.994 528.886 237.443C528.48 237.891 528.169 238.416 527.971 238.988C527.774 239.559 527.694 240.165 527.736 240.768L532.656 288.264C532.796 289.371 533.332 290.391 534.167 291.132C535.001 291.874 536.076 292.287 537.192 292.296H538.08L565.824 289.896M623.424 284.856C624.617 284.764 625.727 284.211 626.519 283.316C627.312 282.42 627.726 281.251 627.672 280.056C627.498 278.944 626.939 277.929 626.092 277.188C625.245 276.446 624.165 276.026 623.04 276H622.464L599.256 278.016L594.816 234.96C594.642 233.848 594.083 232.833 593.236 232.092C592.389 231.35 591.309 230.93 590.184 230.904H589.56C588.963 230.935 588.378 231.083 587.839 231.342C587.3 231.601 586.818 231.964 586.42 232.41C586.023 232.857 585.718 233.378 585.524 233.944C585.329 234.509 585.249 235.107 585.288 235.704L590.088 283.224C590.233 284.327 590.772 285.341 591.606 286.077C592.439 286.814 593.512 287.224 594.624 287.232H595.512L623.28 284.832M651.384 282.432C652.596 282.37 653.734 281.83 654.548 280.93C655.363 280.03 655.787 278.844 655.728 277.632L650.928 230.112C650.744 229.009 650.18 228.005 649.335 227.273C648.489 226.541 647.414 226.128 646.296 226.104H645.6C645.001 226.125 644.412 226.267 643.869 226.523C643.327 226.778 642.842 227.142 642.444 227.591C642.047 228.04 641.745 228.565 641.557 229.135C641.369 229.705 641.3 230.307 641.352 230.904L646.344 278.4C646.473 279.51 647.002 280.534 647.833 281.281C648.664 282.028 649.739 282.446 650.856 282.456H651.504M441.168 300.792C441.767 300.761 442.354 300.613 442.896 300.355C443.438 300.097 443.923 299.734 444.324 299.288C444.726 298.843 445.035 298.322 445.235 297.756C445.434 297.191 445.52 296.591 445.488 295.992L440.688 248.496C440.509 247.389 439.947 246.379 439.101 245.642C438.255 244.906 437.178 244.489 436.056 244.464H435.408C434.81 244.488 434.223 244.633 433.682 244.889C433.141 245.146 432.657 245.51 432.26 245.958C431.863 246.406 431.561 246.93 431.372 247.499C431.183 248.067 431.111 248.667 431.16 249.264L435.96 296.784C436.084 297.894 436.613 298.918 437.446 299.662C438.278 300.406 439.356 300.817 440.472 300.816H441.144M760.512 54.936L1041 219.168L799.2 428.976L790.656 346.56L206.76 397.488L185.16 188.304L769.032 137.352L760.512 54.936ZM482.736 288.12L477.408 288.576L473.448 250.176L478.752 249.72C479.647 249.672 480.545 249.672 481.44 249.72C486.267 249.777 490.912 251.573 494.523 254.777C498.133 257.982 500.467 262.382 501.096 267.168C501.285 269.753 500.958 272.35 500.135 274.808C499.311 277.266 498.007 279.535 496.299 281.485C494.591 283.434 492.512 285.025 490.184 286.164C487.855 287.303 485.324 287.968 482.736 288.12Z" fill="white"/>
</g>
<path d="M714.816 220.8C715.92 220.811 716.984 221.216 717.815 221.942C718.647 222.668 719.192 223.668 719.352 224.76L724.152 271.536C724.224 272.736 723.818 273.915 723.021 274.815C722.225 275.715 721.104 276.262 719.904 276.336H719.328C718.159 276.283 717.05 275.805 716.208 274.992L715.728 274.56L684.648 241.2L688.08 274.632C688.16 275.818 687.768 276.987 686.991 277.885C686.213 278.784 685.113 279.34 683.928 279.432H683.304C682.191 279.413 681.121 278.996 680.289 278.257C679.457 277.517 678.917 276.503 678.768 275.4L673.968 228.624C673.841 227.893 673.909 227.142 674.166 226.447C674.424 225.751 674.86 225.136 675.432 224.664C676.39 223.938 677.566 223.557 678.768 223.584C680.012 223.627 681.191 224.152 682.056 225.048L713.424 258.648L710.04 225.6C709.994 225.012 710.066 224.42 710.25 223.859C710.435 223.299 710.728 222.78 711.114 222.334C711.501 221.887 711.971 221.522 712.5 221.259C713.028 220.995 713.603 220.84 714.192 220.8C714.4 220.788 714.608 220.788 714.816 220.8Z" fill="white"/>
<path d="M1077.6 976.656C1077.6 976.656 1079.33 1086.07 1079.33 1086.14C1079.06 1106.66 1078.46 1124.54 1077.29 1133.9C1077.3 1133.95 1077.3 1134 1077.29 1134.05C1077.25 1136.25 1076.71 1138.4 1075.7 1140.36V1140.48C1069.54 1144.54 905.616 1147.18 899.88 1145.28C894.144 1143.38 898.896 1126.92 905.184 1121.74C911.472 1116.55 973.776 1087.49 973.776 1087.49L973.08 976.584L1077.6 976.656Z" fill="#AD6359"/>
<path d="M1079.62 1064.14C1079.62 1064.14 1079.21 1086.07 1079.21 1086.14C1078.94 1106.66 1078.34 1124.54 1077.17 1133.9C1077.18 1133.95 1077.18 1134 1077.17 1134.05C1076.9 1136.21 1076.36 1138.33 1075.58 1140.36V1140.48C1069.42 1144.54 905.496 1147.18 899.76 1145.28C894.024 1143.38 898.776 1126.92 905.064 1121.74C911.352 1116.55 973.656 1087.49 973.656 1087.49L973.776 1065.14L1079.62 1064.14Z" fill="white"/>
<path d="M963.48 1087.51C974.424 1085.83 987.648 1087.9 995.712 1095.91C996.024 1096.22 995.592 1096.66 995.232 1096.54C984.951 1092.86 974.307 1090.29 963.48 1088.88C963.32 1088.85 963.176 1088.77 963.073 1088.64C962.969 1088.52 962.913 1088.36 962.913 1088.2C962.913 1088.03 962.969 1087.88 963.073 1087.75C963.176 1087.63 963.32 1087.54 963.48 1087.51Z" fill="#263238"/>
<path d="M955.488 1092C966.432 1090.3 979.656 1092.38 987.72 1100.4C988.032 1100.71 987.6 1101.14 987.24 1101.02C976.959 1097.35 966.314 1094.78 955.488 1093.37C955.328 1093.34 955.184 1093.25 955.081 1093.13C954.977 1093 954.92 1092.85 954.92 1092.68C954.92 1092.52 954.977 1092.36 955.081 1092.24C955.184 1092.11 955.328 1092.03 955.488 1092Z" fill="#263238"/>
<path d="M947.496 1096.49C958.44 1094.78 971.664 1096.87 979.728 1104.89C980.04 1105.18 979.608 1105.63 979.248 1105.51C968.967 1101.84 958.323 1099.27 947.496 1097.86C947.337 1097.83 947.193 1097.74 947.089 1097.62C946.985 1097.49 946.929 1097.33 946.929 1097.17C946.929 1097.01 946.985 1096.85 947.089 1096.73C947.193 1096.6 947.337 1096.52 947.496 1096.49Z" fill="#263238"/>
<path d="M899.616 1145.35C905.352 1147.2 1069.2 1147.56 1075.37 1143.48C1077.77 1141.97 1078.82 1115.06 1079.21 1086.14V1085.23L973.44 1085.76V1087.56C973.44 1087.56 911.16 1116.62 904.848 1121.83C898.536 1127.04 893.856 1143.55 899.616 1145.35Z" fill="#26315F"/>
<path d="M901.368 1138.97C928.968 1137.84 1040.57 1135.92 1067.88 1136.9C1068.1 1136.9 1068.1 1137.07 1067.88 1137.07C1040.52 1138.8 929.016 1139.81 901.368 1139.47C900.792 1139.4 900.768 1138.99 901.368 1138.97Z" fill="#263238"/>
<path opacity="0.1" d="M981.84 1086.05L920.304 1146.26C913.389 1146.33 906.475 1146.02 899.592 1145.35C893.856 1143.53 898.632 1126.99 904.896 1121.81C911.16 1116.62 973.512 1087.56 973.512 1087.56V1085.78H981.576L981.84 1086.05Z" fill="black"/>
<path d="M1083 1084.8L963.48 1086.19C963.48 1086.19 960.744 883.944 960.864 819.552C960.984 745.992 972 526.536 972 526.536L1060.66 527.4C1070 549.576 1076.46 572.863 1079.86 596.688C1081.27 606.936 1079.66 636.792 1076.14 650.448L1072.97 829.2L1083 1084.8Z" fill="#263238"/>
<path d="M979.944 957.048C978.888 925.104 978.264 885.888 977.712 853.848C976.592 789.944 976.76 726.032 978.216 662.112C979.008 626.256 980.328 590.424 981.744 554.592C981.744 554.184 981.144 554.184 981.12 554.592C977.088 618.72 975.168 683.016 974.448 747.264C973.728 811.512 974.448 882.36 976.848 946.248C978.264 982.104 980.088 1017.96 983.112 1053.72C983.112 1054.03 983.616 1054.03 983.616 1053.72C982.536 1021.54 981.024 989.304 979.944 957.048Z" fill="#37474F"/>
<path d="M979.2 1063.2C1003.03 1061.59 1026.98 1061.54 1050.86 1062C1057.61 1062.14 1064.35 1062.34 1071.1 1062.67C1071.34 1062.67 1071.31 1063.03 1071.1 1063.03C1047.26 1064.5 1023.31 1064.78 999.432 1064.3C992.688 1064.18 985.944 1063.97 979.2 1063.61C979.157 1063.59 979.121 1063.57 979.095 1063.53C979.069 1063.49 979.055 1063.45 979.055 1063.4C979.055 1063.36 979.069 1063.32 979.095 1063.28C979.121 1063.24 979.157 1063.21 979.2 1063.2Z" fill="#37474F"/>
<path d="M915.168 984.744C915.168 984.744 914.76 1087.66 914.76 1087.73C914.496 1108.22 913.896 1126.13 912.72 1135.46C912.731 1135.51 912.731 1135.56 912.72 1135.61C912.68 1137.81 912.139 1139.96 911.136 1141.92C911.136 1141.92 911.136 1142.04 911.016 1142.06C904.848 1146.12 740.928 1148.76 735.192 1146.86C729.456 1144.97 734.208 1128.53 740.472 1123.34C746.736 1118.16 809.088 1089.07 809.088 1089.07L815.112 984.984L915.168 984.744Z" fill="#AD6359"/>
<path d="M915.168 1065.72C915.168 1065.72 914.76 1087.66 914.76 1087.73C914.496 1108.22 913.896 1126.13 912.72 1135.46C912.731 1135.51 912.731 1135.56 912.72 1135.61C912.436 1137.77 911.904 1139.88 911.136 1141.92C911.136 1141.92 911.136 1142.04 911.016 1142.06C904.848 1146.12 740.928 1148.76 735.192 1146.86C729.456 1144.97 734.208 1128.53 740.472 1123.34C746.736 1118.16 809.088 1089.07 809.088 1089.07V1066.73L915.168 1065.72Z" fill="white"/>
<path d="M799.032 1089.1C809.952 1087.39 823.2 1089.48 831.264 1097.47C831.576 1097.78 831.144 1098.24 830.784 1098.12C820.507 1094.43 809.861 1091.87 799.032 1090.46C798.873 1090.43 798.729 1090.35 798.625 1090.22C798.522 1090.1 798.465 1089.94 798.465 1089.78C798.465 1089.62 798.522 1089.46 798.625 1089.34C798.729 1089.21 798.873 1089.13 799.032 1089.1Z" fill="#263238"/>
<path d="M791.04 1093.58C801.96 1091.88 815.208 1093.97 823.272 1101.96C823.584 1102.27 823.272 1102.73 822.792 1102.58C812.51 1098.92 801.866 1096.36 791.04 1094.95C790.881 1094.92 790.736 1094.84 790.633 1094.71C790.529 1094.59 790.473 1094.43 790.473 1094.27C790.473 1094.11 790.529 1093.95 790.633 1093.82C790.736 1093.7 790.881 1093.61 791.04 1093.58Z" fill="#263238"/>
<path d="M783.048 1098.05C793.968 1096.37 807.216 1098.46 815.28 1106.45C815.592 1106.76 815.16 1107.19 814.8 1107.07C804.518 1103.4 793.874 1100.84 783.048 1099.44C782.863 1099.44 782.686 1099.37 782.556 1099.24C782.425 1099.11 782.352 1098.93 782.352 1098.74C782.352 1098.56 782.425 1098.38 782.556 1098.25C782.686 1098.12 782.863 1098.05 783.048 1098.05Z" fill="#263238"/>
<path d="M735.144 1146.94C740.904 1148.76 905.376 1149.79 911.568 1145.71C913.968 1144.2 914.376 1116.65 914.76 1087.73V1086.82L808.992 1087.34V1089.14C808.992 1089.14 746.712 1118.21 740.376 1123.39C734.04 1128.58 729.384 1145.11 735.144 1146.94Z" fill="#26315F"/>
<path d="M736.8 1140C764.424 1139.04 876 1137.77 903.336 1138.92C903.552 1138.92 903.552 1139.09 903.336 1139.11C875.976 1140.65 764.448 1141.01 736.8 1140.46C736.32 1140.48 736.32 1140 736.8 1140Z" fill="#263238"/>
<path d="M1008.12 640.368C1008.12 640.368 942.6 795.504 936.792 820.368C931.32 843.768 921.624 1087.78 921.624 1087.78L804.816 1086.86C804.816 1086.86 822 840.24 824.16 815.208C827.016 782.352 855.624 707.424 885.936 627.312C898.8 593.376 916.08 560.112 925.152 526.104L1057.92 527.4C1057.92 527.4 1056.17 587.4 1028.47 630.456C1028.47 630.408 1016.06 636 1008.12 640.368Z" fill="#263238"/>
<path d="M815.592 1064.93C839.448 1063.78 863.4 1064.18 887.256 1065.1C894 1065.36 900.744 1065.67 907.464 1066.13C907.515 1066.13 907.564 1066.15 907.6 1066.18C907.636 1066.22 907.656 1066.27 907.656 1066.32C907.656 1066.37 907.636 1066.42 907.6 1066.46C907.564 1066.49 907.515 1066.51 907.464 1066.51C883.608 1067.52 859.632 1067.35 835.776 1066.51C829.032 1066.25 822.288 1065.91 815.568 1065.43C815.501 1065.43 815.438 1065.4 815.393 1065.35C815.348 1065.3 815.325 1065.23 815.328 1065.17C815.331 1065.1 815.361 1065.04 815.41 1064.99C815.46 1064.95 815.525 1064.92 815.592 1064.93Z" fill="#37474F"/>
<path d="M977.616 643.032C983.751 643.053 989.877 642.555 995.928 641.544C1001.93 640.246 1007.87 638.644 1013.71 636.744C1019.45 635.481 1025.26 634.591 1031.11 634.08C1037.01 633.28 1042.76 631.623 1048.18 629.16C1048.44 629.04 1048.63 629.424 1048.39 629.544C1043.13 632.31 1037.65 634.622 1032 636.456C1026.14 638.256 1020 638.448 1014.1 639.84C1008.09 641.558 1001.98 642.897 995.808 643.848C989.735 644.541 983.596 644.379 977.568 643.368C977.328 643.392 977.4 643.032 977.616 643.032Z" fill="#37474F"/>
<path d="M966.192 739.92C967.488 736.296 968.592 732.72 970.056 729.048C972.792 721.848 975.576 714.432 978.6 707.184C984.624 692.784 990.336 678.384 996.696 663.984C1000.32 655.872 1003.56 647.64 1007.78 639.696C1007.78 639.504 1008.26 639.696 1008.19 639.696C1006.06 647.136 1003.03 654.384 1000.32 661.728C997.608 669.072 994.704 676.32 991.8 683.592C986.04 697.992 980.4 712.536 974.112 726.792C972.352 730.792 970.528 734.792 968.64 738.792C966.696 742.872 965.16 747.072 962.832 751.032C962.712 751.248 962.328 751.152 962.376 750.912C963.288 747.312 964.8 743.64 966.192 739.92Z" fill="#37474F"/>
<path d="M941.88 534.192C941.88 533.784 942.288 534.048 942.264 534.36C941.434 545.404 939.209 556.299 935.64 566.784L924.36 597.984L901.728 660.504C884.928 707.448 867.48 754.104 851.928 801.504C850.232 806.708 849.247 812.117 849 817.584C843.672 877.704 835.824 987.984 830.736 1049.45C830.736 1049.66 830.16 1049.93 830.16 1049.45C830.16 1048.49 834.504 983.16 834.504 983.16C837.264 943.704 840.84 889.296 844.104 850.512C844.968 839.448 845.832 828.408 846.84 817.368C847.082 811.747 848.083 806.185 849.816 800.832C871.824 734.352 898.944 663.504 923.376 597.576L935.208 566.496C938.872 556.038 941.155 545.146 942 534.096L941.88 534.192Z" fill="#37474F"/>
<path d="M993.6 381.744C1000.63 384.144 1019.3 375.144 1028.35 365.64C1028.95 364.968 1029.91 356.616 1031.57 346.44C1032.58 340.32 1033.97 333.528 1035.48 327.408L994.68 326.568C994.88 334.795 994.074 343.016 992.28 351.048C992.033 351.872 991.72 352.675 991.344 353.448C991.344 353.568 991.224 353.712 991.176 353.856C988.968 358.512 982.56 377.976 993.6 381.744Z" fill="#AD6359"/>
<path d="M991.008 353.952C992.267 354.475 993.568 354.892 994.896 355.2C1016.3 360.36 1029.02 336.12 1032.86 327.432L994.608 326.664C994.808 334.883 994.002 343.096 992.208 351.12C991.972 351.948 991.658 352.751 991.272 353.52C991.2 353.664 991.056 353.808 991.008 353.952Z" fill="#263238"/>
<path d="M1039.58 321.6C1032.24 330.864 1024.15 338.592 1018.34 340.32C999.6 345.936 977.544 336.84 975.144 316.32C973.416 302.376 988.728 277.08 1002.74 262.272C1008.72 255.936 1014.5 251.496 1018.56 250.728C1038.65 246.888 1060.94 266.976 1057.73 288.48C1056.48 296.424 1048.58 310.2 1039.58 321.6Z" fill="#AD6359"/>
<path d="M1009.94 293.424C1009.94 293.424 1009.94 293.664 1009.94 293.76C1008.31 296.016 1006.82 298.872 1008.38 300.96C1006.03 299.088 1008 295.2 1009.94 293.424Z" fill="#263238"/>
<path d="M1013.64 292.416C1017.53 294.648 1012.8 302.28 1009.18 300.216C1005.55 298.152 1010.4 290.544 1013.64 292.416Z" fill="#263238"/>
<path d="M996.72 285.6C996.72 285.6 996.456 285.6 996.408 285.6C995.016 288 993 290.544 990.384 289.992C990.384 289.992 990.24 289.992 990.384 290.136C993.168 291.576 995.784 288.192 996.72 285.6Z" fill="#263238"/>
<path d="M996.144 281.904C992.52 279.264 987.48 286.704 990.84 289.104C994.2 291.504 999.168 284.136 996.144 281.904Z" fill="#263238"/>
<path d="M1018.61 290.952C1017.75 290.039 1016.95 289.077 1016.21 288.072C1015.24 287.18 1014.61 285.987 1014.41 284.688C1014.42 284.268 1014.57 283.864 1014.83 283.538C1015.1 283.212 1015.46 282.984 1015.87 282.888C1016.71 282.831 1017.54 282.993 1018.3 283.36C1019.05 283.726 1019.7 284.283 1020.17 284.976C1021.33 286.247 1021.97 287.909 1021.97 289.632C1021.94 290.006 1021.8 290.363 1021.57 290.663C1021.35 290.964 1021.05 291.195 1020.7 291.333C1020.35 291.47 1019.97 291.507 1019.6 291.44C1019.23 291.372 1018.89 291.203 1018.61 290.952Z" fill="#263238"/>
<path d="M995.496 276.84C996.641 277.272 997.811 277.633 999 277.92C1000.19 278.489 1001.53 278.641 1002.82 278.352C1003.21 278.194 1003.53 277.908 1003.73 277.542C1003.94 277.176 1004.01 276.75 1003.94 276.336C1003.69 275.539 1003.23 274.822 1002.61 274.258C1001.99 273.694 1001.23 273.302 1000.42 273.12C998.816 272.509 997.048 272.509 995.448 273.12C995.092 273.286 994.791 273.551 994.582 273.884C994.373 274.217 994.265 274.603 994.27 274.995C994.275 275.388 994.393 275.771 994.611 276.099C994.828 276.426 995.136 276.683 995.496 276.84Z" fill="#263238"/>
<path d="M998.4 316.608C997.497 316.996 996.486 317.056 995.544 316.776C994.674 316.206 993.93 315.462 993.36 314.592H993.192C993.244 315.266 993.477 315.913 993.865 316.467C994.254 317.02 994.784 317.458 995.4 317.736C995.962 317.907 996.561 317.91 997.124 317.743C997.687 317.577 998.189 317.249 998.568 316.8C998.76 316.8 998.592 316.584 998.4 316.608Z" fill="#263238"/>
<path d="M1000.37 307.992C999.19 308.556 997.907 308.869 996.601 308.911C995.296 308.952 993.996 308.721 992.784 308.232C991.714 307.833 990.711 307.275 989.808 306.576C989.618 306.46 989.441 306.323 989.28 306.168L988.824 305.76C988.709 305.662 988.631 305.527 988.605 305.378C988.578 305.229 988.605 305.075 988.68 304.944L988.8 304.8L988.92 304.608C990 302.736 991.896 300.096 991.896 300.096C991.032 300.096 986.688 299.424 987.336 298.512C992.645 290.408 998.765 282.865 1005.6 276C1005.82 275.784 1006.18 276 1005.98 276.336C1001.18 283.824 994.992 290.424 990 297.936C991.552 298.129 993.07 298.533 994.512 299.136C994.728 299.376 990.744 304.2 990.336 305.088C991.741 306.16 993.346 306.939 995.056 307.38C996.767 307.821 998.549 307.915 1000.3 307.656C1000.54 307.608 1000.63 307.896 1000.37 307.992Z" fill="#263238"/>
<path d="M991.44 306.312C991.633 308.238 992.319 310.081 993.432 311.664C994.069 312.501 994.949 313.121 995.952 313.44C998.136 314.112 999.264 312.408 999.84 310.704C1000.14 309.802 1000.32 308.867 1000.39 307.92C997.313 308.351 994.176 307.788 991.44 306.312Z" fill="#263238"/>
<path d="M993.432 311.664C994.069 312.501 994.949 313.121 995.952 313.44C998.136 314.112 999.264 312.408 999.84 310.704C998.819 310.121 997.632 309.898 996.469 310.073C995.307 310.247 994.237 310.807 993.432 311.664Z" fill="#FF9ABB"/>
<path d="M1041.98 322.248C1032.38 317.136 1034.4 303.048 1041.98 295.632C1041.98 295.632 1015.44 283.632 1026.58 263.136C1023.16 264.745 1019.4 265.482 1015.63 265.281C1011.86 265.08 1008.2 263.947 1004.98 261.984L997.776 267.528C995.712 265.128 997.512 256.416 1007.16 254.64C1007.16 254.64 1013.74 245.04 1024.66 243.744C1027.67 243.273 1030.75 243.684 1033.53 244.928C1036.31 246.172 1038.67 248.195 1040.33 250.752C1046.53 250.317 1052.65 252.324 1057.39 256.344C1059.84 258.481 1061.75 261.173 1062.95 264.196C1064.14 267.218 1064.6 270.484 1064.28 273.72C1064.28 273.72 1074.96 283.632 1071.65 293.568C1070.76 296.402 1069.28 299.016 1067.31 301.241C1065.34 303.466 1062.93 305.251 1060.22 306.48C1060.22 306.48 1061.16 311.784 1055.02 318.168C1051.2 322.272 1044.86 323.808 1041.98 322.248Z" fill="#263238"/>
<path d="M1028.33 261.72C1027.14 263.211 1026.11 264.819 1025.26 266.52C1024.38 268.172 1023.71 269.919 1023.24 271.728C1022.31 275.298 1022.77 279.086 1024.51 282.336C1026.39 285.54 1028.99 288.254 1032.12 290.256C1033.75 291.216 1035.31 292.272 1036.92 293.136C1038.53 294 1040.33 294.768 1042.03 295.656C1040.23 295.056 1038.43 294.384 1036.63 293.736C1034.83 293.088 1033.22 291.984 1031.5 291.12C1028.1 289.137 1025.26 286.331 1023.24 282.96C1021.4 279.412 1021.02 275.287 1022.18 271.464C1023.37 267.749 1025.49 264.396 1028.33 261.72Z" fill="#263238"/>
<path d="M1008.58 265.176C1011.83 265.95 1015.19 266.169 1018.51 265.824C1020.16 265.653 1021.77 265.257 1023.31 264.648C1024.86 264.007 1026.33 263.203 1027.7 262.248C1026.63 263.633 1025.28 264.778 1023.74 265.608C1022.2 266.475 1020.49 267.022 1018.73 267.216C1016.98 267.421 1015.22 267.348 1013.5 267C1011.76 266.674 1010.1 266.057 1008.58 265.176Z" fill="#263238"/>
<path d="M1033.7 312.504C1033.7 312.504 1047.82 304.872 1051.68 310.464C1055.54 316.056 1040.81 330 1033.37 329.208C1032.41 329.156 1031.48 328.915 1030.62 328.498C1029.76 328.081 1028.99 327.497 1028.36 326.78C1027.72 326.063 1027.24 325.227 1026.94 324.321C1026.63 323.415 1026.51 322.458 1026.58 321.504L1033.7 312.504Z" fill="#AD6359"/>
<path d="M1047.36 314.4V314.592C1042.08 314.16 1037.76 316.992 1033.99 320.496C1034.47 320.181 1035 319.973 1035.57 319.886C1036.13 319.8 1036.71 319.836 1037.25 319.994C1037.8 320.151 1038.31 320.426 1038.74 320.798C1039.17 321.171 1039.52 321.633 1039.75 322.152C1039.75 322.296 1039.61 322.416 1039.51 322.344C1038.85 321.689 1038 321.263 1037.08 321.13C1036.16 320.996 1035.22 321.161 1034.4 321.6C1033.04 322.244 1031.76 323.05 1030.58 324C1030.18 324.288 1029.58 323.712 1029.96 323.328C1032.79 317.568 1041.05 312 1047.36 314.4Z" fill="#263238"/>
<path d="M981 372.336L986.664 351.456L1033.15 344.952L1033.85 360.96C1028.03 368.711 1020.68 375.182 1012.25 379.968C999.456 386.832 986.904 384 981 372.336Z" fill="#EBEBEB"/>
<path d="M1079.62 582.216C1079.16 582.624 913.296 556.032 911.928 554.04C910.008 551.256 952.968 395.832 985.824 361.56C994.056 352.968 1022.76 349.56 1033.1 359.424C1069.32 393.6 1081.25 580.8 1079.62 582.216Z" fill="#37474F"/>
<path d="M1006.39 392.688C988.272 437.064 930.312 514.704 903.192 517.2C871.992 520.104 789.096 477.048 772.44 458.04C765.816 450.48 812.616 397.824 821.664 403.632C859.56 428.016 889.848 443.016 896.064 440.592C905.448 436.848 949.392 396.552 977.664 371.784C1013.14 340.656 1014.55 372.768 1006.39 392.688Z" fill="#AD6359"/>
<path d="M788.328 467.712C783.528 466.872 748.176 449.592 737.064 440.52C725.139 431.18 714.805 419.971 706.464 407.328C693.408 387.288 686.28 372.216 687.264 364.728C688.416 356.016 688.92 354.552 716.856 386.712C732.648 404.928 744.744 405.168 754.848 403.224C780.422 398.598 806.787 401.414 830.808 411.336C830.808 411.336 806.904 470.904 788.328 467.712Z" fill="#AD6359"/>
<path d="M749.784 403.944C760.296 402.264 722.544 386.952 719.952 375.144C717.36 363.336 729.552 365.04 739.968 370.176C775.8 388.008 799.608 382.68 819.6 402.192C839.592 421.704 749.784 403.944 749.784 403.944Z" fill="#AD6359"/>
<path d="M894.48 437.256C885.912 437.64 833.16 409.704 833.16 409.704L784.536 479.04C784.536 479.04 877.344 523.632 901.944 520.8C926.544 517.968 979.416 448.296 1000.97 405.744C1021.22 365.76 1012.97 334.872 972.936 372.144C972.936 372 898.944 437.04 894.48 437.256Z" fill="#37474F"/>
<path d="M801.6 486.936C807.624 489.648 814.824 492.84 822.648 496.2L868.248 427.248C861.264 423.96 853.992 420.36 847.944 417.312C833.88 438.288 816.912 463.752 801.6 486.936Z" fill="#26315F"/>
<path d="M830.832 499.632L837.648 502.464L883.032 433.824C880.968 432.984 878.76 432.048 876.432 431.04C862.728 451.584 846.048 476.64 830.832 499.632Z" fill="#26315F"/>
<path d="M903.672 518.712C925.008 513.192 960.048 467.136 966.84 458.088C971.184 452.28 975.288 446.328 979.368 440.328C987.504 428.328 995.28 416.088 1002.84 403.728C1002.84 403.512 1003.27 403.728 1003.18 403.92C998.376 413.688 993.048 423.264 987.288 432.552C990.437 429.303 993.394 425.874 996.144 422.28C996.264 422.112 996.576 422.28 996.456 422.52C993.5 426.869 990.045 430.856 986.16 434.4C980.336 443.712 974.072 452.736 967.368 461.472C965.424 463.872 924.168 520.728 901.44 521.808C893.544 522.192 868.488 514.608 863.376 512.208C863.136 512.208 863.16 511.8 863.376 511.848C870.792 513.312 896.064 520.8 903.672 518.712Z" fill="#263238"/>
<path d="M807.744 474.504C809.28 472.104 810.84 469.704 812.4 467.304C815.52 462.504 834.264 433.872 841.536 425.256C841.728 425.016 842.088 425.256 841.944 425.568C836.712 435.6 817.344 463.656 814.128 468.264L809.16 475.2C807.456 477.6 805.512 479.712 803.832 482.064C803.664 482.304 803.28 482.064 803.448 481.848C804.984 479.52 806.208 476.928 807.744 474.504Z" fill="#263238"/>
<path d="M833.112 409.824C837.72 411.072 877.608 430.224 886.416 434.376C888.473 435.58 890.735 436.394 893.088 436.776C895.505 436.609 897.785 435.588 899.52 433.896C903.288 431.112 945.864 394.944 948.744 393.336C949.824 392.736 950.568 392.736 949.416 393.912C947.424 395.952 905.88 431.76 902.208 434.496C898.536 437.232 895.536 439.752 891.048 438.576C889.08 438.048 835.176 412.68 832.656 410.88C832.571 410.791 832.514 410.68 832.492 410.559C832.47 410.438 832.484 410.313 832.533 410.201C832.582 410.088 832.663 409.992 832.766 409.925C832.868 409.858 832.989 409.823 833.112 409.824Z" fill="#263238"/>
<path d="M154.44 915C154.44 915 101.64 1008.34 101.64 1008.41C93.144 1027.2 86.064 1044 83.184 1052.83C83.1736 1052.88 83.1736 1052.93 83.184 1052.98C82.2839 1055 81.865 1057.21 81.96 1059.43C81.96 1059.43 81.96 1059.55 81.96 1059.6C85.872 1065.91 234.312 1138.06 240.36 1138.8C246.408 1139.54 249.048 1122.46 245.544 1115.06C242.04 1107.67 197.544 1054.61 197.544 1054.61L249.384 961.008L154.44 915Z" fill="#EB9481"/>
<path d="M237.96 1138.27C231.936 1137.5 85.8719 1065.89 81.9599 1059.6C81.9544 1059.54 81.9544 1059.49 81.9599 1059.43C81.8776 1057.22 82.2959 1055.01 83.1839 1052.98C83.1839 1052.98 83.1839 1052.98 83.1839 1052.86C86.0639 1043.88 93.1679 1027.22 101.616 1008.38C101.616 1008.38 110.52 992.088 114.048 986.424L208.464 1035.22L197.496 1054.63C197.496 1054.63 239.592 1107.14 243.096 1114.63C246.6 1122.12 244.008 1139.06 237.96 1138.27Z" fill="#EBEBEB"/>
<path d="M240.672 1136.26C234.6 1135.34 86.7118 1059.14 82.9198 1052.66C81.4318 1050.26 91.2958 1028.04 103.944 1001.54C104.094 1001.28 104.23 1001.01 104.352 1000.73L200.352 1048.73L199.488 1050.34C199.488 1050.34 243.048 1104.82 246.456 1112.38C249.864 1119.94 246.72 1137.22 240.672 1136.26Z" fill="#26315F"/>
<path d="M241.944 1129.66C217.344 1116.22 116.784 1064.26 91.4162 1052.86C91.2242 1052.86 91.1522 1052.86 91.4162 1053C115.416 1066.87 216.504 1118.02 241.824 1130.11C242.4 1130.4 242.4 1129.94 241.944 1129.66Z" fill="white"/>
<path d="M207.336 1054.85C198.456 1047.96 185.736 1043.28 174.576 1046.4C174.168 1046.52 174.336 1047.14 174.696 1047.19C185.628 1048.98 196.337 1051.93 206.64 1056C206.788 1056.04 206.945 1056.04 207.089 1055.98C207.232 1055.93 207.352 1055.82 207.432 1055.69C207.511 1055.56 207.545 1055.41 207.528 1055.25C207.51 1055.1 207.443 1054.96 207.336 1054.85Z" fill="#263238"/>
<path d="M212.208 1062.74C203.352 1055.88 190.608 1051.2 179.472 1054.32C179.04 1054.44 179.208 1055.06 179.472 1055.11C190.405 1056.92 201.113 1059.89 211.416 1063.97C211.579 1064.07 211.776 1064.11 211.965 1064.07C212.154 1064.03 212.319 1063.91 212.424 1063.75C212.529 1063.59 212.565 1063.39 212.525 1063.2C212.484 1063.01 212.371 1062.85 212.208 1062.74Z" fill="#263238"/>
<path d="M217.104 1070.66C208.224 1063.78 195.504 1059.12 184.344 1062.24C183.912 1062.24 184.104 1062.96 184.344 1063.03C195.277 1064.84 205.986 1067.81 216.288 1071.89C216.45 1072 216.649 1072.04 216.84 1072C217.031 1071.96 217.2 1071.85 217.308 1071.68C217.416 1071.52 217.455 1071.32 217.417 1071.13C217.379 1070.94 217.266 1070.77 217.104 1070.66Z" fill="#263238"/>
<path d="M120.24 1029.86C112.296 1018.99 95.3522 1031.35 103.32 1042.25C111.288 1053.14 128.232 1040.78 120.24 1029.86Z" fill="white"/>
<path opacity="0.1" d="M205.968 1058.59L216.6 1125C224.4 1129.16 232.411 1132.92 240.6 1136.26C246.648 1137.22 249.744 1119.98 246.384 1112.47C243.864 1106.76 218.232 1074.1 205.968 1058.59Z" fill="black"/>
<path d="M245.664 1132.13C247.776 1134.53 242.64 1143.1 240.36 1142.83C238.08 1142.57 77.16 1058.83 74.76 1056.74C72.36 1054.66 78.408 1045.39 81.96 1046.54C85.512 1047.7 245.664 1132.13 245.664 1132.13Z" fill="#26315F"/>
<path opacity="0.4" d="M245.664 1132.13C247.776 1134.53 242.64 1143.1 240.36 1142.83C238.08 1142.57 77.16 1058.83 74.76 1056.74C72.36 1054.66 78.408 1045.39 81.96 1046.54C85.512 1047.7 245.664 1132.13 245.664 1132.13Z" fill="black"/>
<path d="M113.832 977.688L220.224 1034.4C220.224 1034.4 354.48 843.048 357.168 792.768C360.888 723.336 301.608 502.896 301.608 502.896L207.024 502.248C207.024 502.248 245.424 728.952 242.352 767.616C240.72 787.968 113.832 977.688 113.832 977.688Z" fill="#263238"/>
<path d="M229.512 1012.51C224.016 1008.58 173.592 979.344 135.192 960.672C134.952 960.672 134.784 960.912 135 961.08C146.64 968.76 221.904 1009.99 229.224 1012.92C229.464 1013.02 229.752 1012.8 229.512 1012.51Z" fill="#37474F"/>
<path d="M255.48 719.28C251.088 686.112 246.264 652.992 240.744 619.968C235.224 586.944 229.368 553.68 222.432 520.8C221.592 516.768 220.704 512.76 219.816 508.8C219.791 508.673 219.716 508.561 219.608 508.489C219.5 508.417 219.367 508.391 219.24 508.416C219.113 508.441 219.001 508.516 218.929 508.624C218.857 508.733 218.831 508.865 218.856 508.992C224.688 541.632 230.688 574.224 236.04 606.96C241.392 639.696 246.408 672.432 250.896 705.36C252 713.488 253.08 721.624 254.136 729.768C255.427 738.162 256.229 746.625 256.536 755.112C256.672 763.207 255.296 771.257 252.48 778.848C249.467 786.259 245.821 793.398 241.584 800.184C224.472 829.128 147.84 955.632 145.872 959.304C145.728 959.544 146.064 959.784 146.208 959.544C164.616 931.008 221.64 839.904 238.992 810.48C246.816 797.208 255.792 783.768 258.336 768.288C261.024 752.088 257.592 735.24 255.48 719.28Z" fill="#37474F"/>
<path d="M228.24 977.688L227.16 1085.69C227.736 1106.33 228.6 1124.4 229.92 1133.69C229.909 1133.74 229.909 1133.78 229.92 1133.83C229.993 1136.05 230.576 1138.22 231.624 1140.17C231.624 1140.17 231.624 1140.29 231.624 1140.31C237.888 1144.3 402.936 1144.54 408.696 1142.71C414.456 1140.89 409.416 1124.21 403.008 1119.1C396.6 1113.98 333.408 1085.62 333.408 1085.62V977.808L228.24 977.688Z" fill="#EB9481"/>
<path d="M227.376 1063.51C227.376 1063.51 227.16 1085.59 227.16 1085.66C227.736 1106.3 228.6 1124.38 229.92 1133.66C229.909 1133.71 229.909 1133.76 229.92 1133.81C230.241 1135.98 230.813 1138.11 231.624 1140.14C231.624 1140.14 231.624 1140.26 231.624 1140.29C237.888 1144.27 402.936 1144.51 408.696 1142.69C414.456 1140.86 409.416 1124.18 403.008 1119.07C396.6 1113.96 333.408 1085.59 333.408 1085.59V1063.1L227.376 1063.51Z" fill="#EBEBEB"/>
<path d="M408.912 1142.4C403.08 1144.27 236.712 1141.34 230.472 1137.19C228.072 1135.68 227.064 1111.42 226.728 1081.99V1081.06L334.056 1081.75V1083.58C334.056 1083.58 397.224 1113.17 403.656 1118.45C410.088 1123.73 414.768 1140.58 408.912 1142.4Z" fill="#26315F"/>
<path d="M407.16 1135.92C379.128 1134.74 265.944 1132.63 238.152 1133.52C237.936 1133.52 237.936 1133.66 238.152 1133.69C265.92 1135.46 379.08 1136.66 407.136 1136.3C407.736 1136.38 407.736 1135.94 407.16 1135.92Z" fill="white"/>
<path d="M343.008 1084.13C331.992 1081.87 318.48 1083.34 309.912 1091.04C309.576 1091.35 309.912 1091.81 310.368 1091.71C320.971 1088.49 331.89 1086.41 342.936 1085.52C343.121 1085.53 343.302 1085.47 343.439 1085.34C343.576 1085.22 343.659 1085.04 343.668 1084.86C343.678 1084.68 343.614 1084.49 343.49 1084.36C343.366 1084.22 343.193 1084.14 343.008 1084.13Z" fill="#263238"/>
<path d="M350.88 1089.07C339.888 1086.82 326.352 1088.28 317.784 1095.98C317.448 1096.27 317.784 1096.75 318.24 1096.63C328.844 1093.42 339.762 1091.35 350.808 1090.46C350.992 1090.47 351.173 1090.41 351.31 1090.29C351.448 1090.16 351.53 1089.99 351.54 1089.8C351.549 1089.62 351.485 1089.44 351.361 1089.3C351.238 1089.16 351.064 1089.08 350.88 1089.07Z" fill="#263238"/>
<path d="M358.752 1094.02C347.76 1091.76 334.248 1093.2 325.656 1100.93C325.344 1101.22 325.776 1101.7 326.136 1101.58C336.74 1098.36 347.658 1096.29 358.704 1095.41C358.796 1095.41 358.887 1095.4 358.972 1095.36C359.058 1095.33 359.136 1095.28 359.203 1095.22C359.27 1095.16 359.324 1095.08 359.362 1095C359.4 1094.92 359.421 1094.83 359.424 1094.74C359.427 1094.64 359.412 1094.55 359.38 1094.47C359.348 1094.38 359.3 1094.3 359.237 1094.24C359.175 1094.17 359.1 1094.12 359.017 1094.08C358.933 1094.04 358.844 1094.02 358.752 1094.02Z" fill="#263238"/>
<path d="M411.552 1136.5C414.528 1137.7 413.712 1147.68 411.552 1148.5C409.392 1149.31 228 1145.21 224.928 1144.46C221.856 1143.72 223.2 1132.68 226.776 1132.18C230.352 1131.67 411.552 1136.5 411.552 1136.5Z" fill="#26315F"/>
<path opacity="0.4" d="M411.552 1136.5C414.528 1137.7 413.712 1147.68 411.552 1148.5C409.392 1149.31 228 1145.21 224.928 1144.46C221.856 1143.72 223.2 1132.68 226.776 1132.18C230.352 1131.67 411.552 1136.5 411.552 1136.5Z" fill="black"/>
<path d="M253.848 1100.26C241.848 1094.02 232.248 1112.57 244.248 1118.83C256.248 1125.1 265.824 1106.4 253.848 1100.26Z" fill="white"/>
<path d="M300.408 502.776C299.76 504.72 265.776 597.84 262.584 599.328C258.96 601.008 337.656 733.2 342.312 794.616C345.288 833.904 339.456 1056.22 339.456 1056.22H224.376C224.376 1056.22 229.896 856.368 232.536 793.056C233.544 768.504 153.528 646.248 152.544 570.12C152.232 546.12 169.488 502.272 169.488 502.272L300.408 502.776Z" fill="#263238"/>
<path d="M233.184 791.4C233.184 790.392 232.392 790.056 232.32 791.112C229.704 825.384 229.104 859.464 227.52 893.784C225.936 928.104 226.824 936.264 225.288 970.584C224.424 989.952 225.288 1009.39 224.784 1028.76C224.784 1029.07 225.24 1029.12 225.264 1028.76C228.792 994.536 233.16 810.816 233.184 791.4Z" fill="#37474F"/>
<path d="M342.288 796.08C342.125 787.616 341.323 779.176 339.888 770.832C338.284 762.716 335.872 754.78 332.688 747.144C326.328 731.136 318.816 715.488 311.64 699.816C304.464 684.144 296.928 668.136 289.272 652.44C284.952 643.64 280.608 634.84 276.24 626.04C271.824 617.136 267.072 608.4 262.44 599.64C262.397 599.582 262.335 599.541 262.265 599.524C262.195 599.507 262.121 599.515 262.056 599.546C261.991 599.577 261.938 599.63 261.908 599.695C261.877 599.76 261.87 599.834 261.888 599.904C269.256 615.744 276.528 631.632 283.896 647.448C291.264 663.264 298.512 679.2 305.76 695.088C313.008 710.976 320.04 726.288 326.76 742.176C330.104 749.708 332.848 757.492 334.968 765.456C336.854 773.687 337.979 782.075 338.328 790.512C339.432 810.168 339.984 829.872 341.928 849.48C341.928 849.72 342.336 849.696 342.36 849.48C343.2 831.672 342.816 813.816 342.288 796.08Z" fill="#37474F"/>
<path d="M331.2 1033.56C324.504 1032.67 273.6 1030.92 230.88 1032.74C230.592 1032.74 230.616 1033.15 230.88 1033.18C244.776 1034.42 323.328 1034.95 331.152 1034.04C331.2 1034.02 331.392 1033.58 331.2 1033.56Z" fill="#37474F"/>
<path d="M278.4 594.264C266.061 597.372 254.015 601.547 242.4 606.744C242.319 606.786 242.255 606.856 242.22 606.941C242.186 607.025 242.183 607.12 242.212 607.207C242.241 607.294 242.3 607.368 242.378 607.415C242.457 607.462 242.55 607.479 242.64 607.464C254.64 603.696 267 600.144 278.856 595.704C279.015 595.62 279.138 595.482 279.206 595.316C279.274 595.15 279.282 594.965 279.227 594.794C279.173 594.623 279.061 594.476 278.91 594.38C278.759 594.283 278.578 594.242 278.4 594.264Z" fill="#37474F"/>
<path d="M290.064 515.376C290.064 514.992 289.392 514.824 289.344 515.256C288.024 529.008 285.912 540.984 283.44 553.656C282.288 559.56 274.128 592.056 264.048 588.528C262.344 587.952 261.648 586.128 261.648 583.536C262.026 580.128 262.833 576.782 264.048 573.576C265.896 566.808 267.528 559.968 268.848 553.08C271.391 540.239 272.59 527.169 272.424 514.08C272.424 513.991 272.389 513.905 272.326 513.842C272.263 513.779 272.177 513.744 272.088 513.744C271.999 513.744 271.914 513.779 271.851 513.842C271.788 513.905 271.752 513.991 271.752 514.08C270.22 532.088 267.332 549.955 263.112 567.528C260.928 575.952 255.288 588.408 264.12 590.64C272.952 592.872 281.208 571.92 282.936 566.136C287.498 549.596 289.894 532.533 290.064 515.376Z" fill="#37474F"/>
<path d="M264.216 589.512C263.073 591.639 262.063 593.835 261.192 596.088C260.354 597.821 259.834 599.691 259.656 601.608C259.656 601.968 260.136 602.064 260.352 601.824C261.601 600.248 262.604 598.492 263.328 596.616C264.312 594.576 265.368 592.584 266.304 590.52C266.438 590.243 266.456 589.924 266.355 589.634C266.254 589.344 266.041 589.106 265.764 588.972C265.487 588.838 265.169 588.82 264.878 588.921C264.588 589.023 264.35 589.235 264.216 589.512Z" fill="#37474F"/>
<path d="M244.968 825.216C245.568 808.872 247.368 791.616 242.016 775.92C239.081 768.229 235.575 760.768 231.528 753.6C227.52 745.92 223.608 738.168 219.768 730.416C204.408 699.36 189.912 667.824 176.976 635.664C170.736 620.184 165.168 604.296 162.936 587.664C160.893 570.211 161.982 552.534 166.152 535.464C167.136 531.216 168.168 526.968 169.32 522.768C169.324 522.71 169.309 522.653 169.277 522.605C169.245 522.557 169.198 522.521 169.144 522.502C169.09 522.483 169.03 522.482 168.976 522.5C168.921 522.518 168.873 522.553 168.84 522.6C163.4 538.705 160.384 555.528 159.888 572.52C159.99 588.796 162.913 604.931 168.528 620.208C174.048 636.288 180.96 651.888 187.728 667.44C194.752 683.44 202.04 699.344 209.592 715.152C217.128 730.848 225.144 746.352 233.088 761.736C237.205 769.084 240.183 777.014 241.92 785.256C243.152 793.782 243.474 802.414 242.88 811.008C241.512 847.2 238.392 967.632 237.936 1003.73L237.792 1017.48C237.792 1017.86 238.392 1017.94 238.416 1017.48C240.72 981.456 243.672 861.288 244.968 825.216Z" fill="#37474F"/>
<path d="M219.168 526.2C219.168 525.96 218.76 526.008 218.736 526.2C217.368 536.16 216.6 546.504 211.776 555.528C207.384 563.832 199.776 569.16 191.28 572.904C186.401 574.996 181.418 576.838 176.352 578.424C176.287 578.443 176.229 578.482 176.188 578.536C176.148 578.59 176.125 578.656 176.125 578.724C176.125 578.792 176.148 578.858 176.188 578.912C176.229 578.966 176.287 579.005 176.352 579.024C185.952 577.032 195.552 574.824 203.808 569.424C212.664 563.712 217.224 554.544 218.688 544.296C219.455 538.295 219.615 532.233 219.168 526.2Z" fill="#37474F"/>
<path d="M157.272 532.272L307.416 515.472L290.856 472.44C290.856 472.44 300.456 453.984 295.152 439.08C290.52 426.288 269.16 402.672 257.424 391.416C228.888 363.984 208.56 380.088 202.44 388.656C179.112 421.344 157.272 532.272 157.272 532.272Z" fill="#DBDBDB"/>
<path d="M247.2 472.32C253.553 471.329 259.97 470.808 266.4 470.76C269.568 470.76 272.736 470.952 276 471.192C277.584 471.192 279.144 471.36 280.8 471.408C282.461 471.528 284.131 471.431 285.768 471.12C285.8 471.12 285.83 471.133 285.853 471.155C285.875 471.178 285.888 471.208 285.888 471.24C285.888 471.272 285.875 471.302 285.853 471.325C285.83 471.347 285.8 471.36 285.768 471.36C284.263 471.8 282.732 472.145 281.184 472.392C279.68 472.584 278.164 472.68 276.648 472.68C273.408 472.68 270.192 472.536 267.048 472.512C260.544 472.512 254.04 472.512 247.536 472.848C247.008 472.8 246.96 472.368 247.2 472.32Z" fill="#263238"/>
<path d="M233.352 481.632C238.309 479.818 243.365 478.288 248.496 477.048C251.064 476.448 253.656 475.992 256.272 475.608L260.016 475.104C261.384 474.936 262.8 474.96 264.168 474.768C264.312 474.768 264.36 474.984 264.168 475.008C262.872 475.2 261.624 475.632 260.352 475.92L256.488 476.784C253.92 477.36 251.352 477.96 248.784 478.512C243.624 479.616 238.512 480.768 233.4 482.04C233.369 482.054 233.335 482.061 233.301 482.06C233.267 482.058 233.234 482.049 233.204 482.032C233.174 482.016 233.149 481.992 233.13 481.964C233.111 481.935 233.099 481.903 233.095 481.869C233.091 481.835 233.095 481.801 233.107 481.769C233.119 481.737 233.138 481.708 233.163 481.685C233.188 481.662 233.218 481.645 233.251 481.636C233.284 481.627 233.319 481.625 233.352 481.632Z" fill="#263238"/>
<path d="M243.264 401.328C243.264 401.328 208.32 393.144 195.264 399.936L188.856 415.2C188.856 415.2 185.736 418.176 183.48 416.376C177.888 411.936 170.664 398.232 178.344 383.424C185.376 369.936 208.8 360.816 225.72 357.6C241.968 354.504 253.992 359.184 254.064 370.728C254.136 382.272 243.264 401.328 243.264 401.328Z" fill="#DBDBDB"/>
<path opacity="0.1" d="M242.592 396.216C242.592 396.216 248.544 378.504 246.888 370.656C245.232 362.808 228 362.832 217.68 364.56C201.72 367.2 192.576 372.672 188.304 383.928C184.032 395.184 242.592 396.216 242.592 396.216Z" fill="black"/>
<path d="M242.592 396.216C242.592 396.216 208.008 378.36 186.24 385.392L195.312 399.936C195.312 399.936 212.496 392.088 243.312 401.328L242.592 396.216Z" fill="#DBDBDB"/>
<path d="M189.936 402.84C193.509 400.762 197.487 399.477 201.6 399.072C217.224 395.688 237.024 400.416 237.024 400.416L242.952 402.216L243.624 402.432L244.008 401.928C249.096 394.896 251.856 382.944 252.336 380.616C249.821 387.664 246.528 394.409 242.52 400.728L243.576 400.416L237.6 398.4C235.584 397.824 214.992 394.992 201.456 397.824C200.4 398.016 199.392 398.304 198.36 398.568C197.328 398.832 196.344 399.192 195.384 399.6C193.401 400.371 191.56 401.466 189.936 402.84Z" fill="#263238"/>
<path d="M188.856 415.2C191.627 410.371 193.795 405.221 195.312 399.864C192.541 404.693 190.372 409.843 188.856 415.2Z" fill="#263238"/>
<path d="M235.416 394.584C236.696 401.669 238.583 408.63 241.056 415.392C242.736 420.192 250.992 436.248 255.96 433.656C260.928 431.064 248.304 423.432 243.432 415.128C238.56 406.824 238.416 399.432 236.712 394.008L235.416 394.584Z" fill="#A6A6A6"/>
<path d="M248.184 389.304C252.906 393.877 257.226 398.847 261.096 404.16C263.808 407.856 271.848 422.304 267.336 424.752C262.824 427.2 263.496 413.76 259.68 405.84C255.864 397.92 250.32 394.056 247.08 389.976L248.184 389.304Z" fill="#A6A6A6"/>
<path d="M211.872 383.544C213.264 385.944 229.656 393.432 241.104 389.256C244.824 387.912 239.136 372.456 239.136 372.456L238.992 370.824L237.12 348L206.976 339.72L202.68 338.712C202.68 338.712 203.616 344.928 204.84 352.68C204.84 353.04 204.96 353.4 205.032 353.76C205.104 354.12 205.032 354.624 205.2 355.032C205.368 356.184 205.56 357.432 205.752 358.536C205.944 359.64 206.04 360.312 206.232 361.248C206.424 362.184 206.592 363.096 206.76 364.032C208.006 370.647 209.714 377.168 211.872 383.544Z" fill="#EB9481"/>
<path d="M204.84 352.632C208.871 357.959 214.015 362.344 219.913 365.482C225.811 368.62 232.322 370.434 238.992 370.8L237.12 348L206.976 339.72L202.68 338.712C202.68 338.712 203.616 344.88 204.84 352.632Z" fill="#263238"/>
<path d="M255.576 302.016C277.464 335.808 259.68 352.728 252.384 357.432C245.76 361.704 222.672 375.432 197.424 344.064C172.176 312.696 180.984 291.84 195.6 281.256C210.216 270.672 233.712 268.2 255.576 302.016Z" fill="#EB9481"/>
<path d="M249.36 301.92C248.488 302.242 247.599 302.515 246.696 302.736C245.806 303.159 244.8 303.269 243.84 303.048C243.548 302.923 243.306 302.704 243.154 302.425C243.002 302.147 242.947 301.825 243 301.512C243.196 300.914 243.544 300.378 244.012 299.957C244.479 299.536 245.049 299.244 245.664 299.112C246.87 298.657 248.201 298.657 249.408 299.112C249.687 299.229 249.924 299.427 250.089 299.68C250.255 299.933 250.34 300.23 250.335 300.532C250.33 300.835 250.234 301.128 250.06 301.376C249.887 301.623 249.643 301.813 249.36 301.92Z" fill="#263238"/>
<path d="M225.336 314.064C226.065 313.495 226.762 312.886 227.424 312.24C228.262 311.714 228.897 310.918 229.224 309.984C229.276 309.671 229.222 309.349 229.07 309.071C228.917 308.792 228.676 308.573 228.384 308.448C227.769 308.29 227.123 308.299 226.512 308.471C225.9 308.644 225.346 308.976 224.904 309.432C223.871 310.212 223.169 311.351 222.936 312.624C222.902 312.917 222.953 313.214 223.084 313.479C223.214 313.744 223.418 313.966 223.672 314.118C223.925 314.27 224.217 314.346 224.512 314.336C224.807 314.327 225.093 314.232 225.336 314.064Z" fill="#263238"/>
<path d="M234.264 317.976C234.264 317.976 234.264 318.192 234.264 318.288C235.704 320.688 236.976 323.52 235.296 325.488C237.744 323.784 236.016 319.944 234.264 317.976Z" fill="#263238"/>
<path d="M230.712 316.8C226.728 318.744 230.88 326.544 234.576 324.768C238.272 322.992 234.048 315.12 230.712 316.8Z" fill="#263238"/>
<path d="M229.392 317.976C228.96 318.768 228.696 319.896 227.904 320.376C227.112 320.856 225.864 320.544 224.808 320.088C224.808 320.088 224.808 320.088 224.808 320.256C225.576 321.768 226.968 322.992 228.696 322.368C229.42 321.983 229.974 321.341 230.25 320.569C230.525 319.796 230.502 318.948 230.184 318.192C230.04 317.928 229.584 317.64 229.392 317.976Z" fill="#263238"/>
<path d="M247.2 309.6C247.2 309.6 247.44 309.6 247.512 309.72C248.688 312.12 250.464 314.832 253.08 314.52C253.08 314.52 253.224 314.64 253.08 314.664C250.176 315.72 247.848 312.216 247.2 309.6Z" fill="#263238"/>
<path d="M247.944 306C251.712 303.6 256.104 311.352 252.744 313.512C249.384 315.672 244.8 307.968 247.944 306Z" fill="#263238"/>
<path d="M249.84 305.592C250.68 305.592 251.712 306.048 252.456 305.592C253.2 305.136 253.464 303.984 253.56 302.88C253.56 302.88 253.56 302.88 253.728 302.88C254.616 304.32 255 306.144 253.728 307.224C252.456 308.304 250.92 307.512 249.72 306.24C249.6 306.096 249.6 305.568 249.84 305.592Z" fill="#263238"/>
<path d="M251.664 324.408C251.664 324.408 254.064 327.744 255.072 329.424C255.072 329.592 254.784 329.88 254.232 330.24C252.912 331.329 251.312 332.026 249.614 332.251C247.917 332.476 246.191 332.22 244.632 331.512C244.44 331.512 244.632 331.128 244.632 331.152C247.605 331.446 250.593 330.773 253.152 329.232C253.008 328.704 248.736 323.688 249 323.52C250.378 322.919 251.831 322.507 253.32 322.296C248.4 315.096 242.376 309 237.576 301.896C237.408 301.632 237.768 301.344 237.96 301.536C244.615 308.008 250.612 315.122 255.864 322.776C256.8 323.688 252.504 324.336 251.664 324.408Z" fill="#263238"/>
<path d="M253.704 329.712C253.525 331.611 252.855 333.43 251.76 334.992C251.169 335.824 250.328 336.446 249.36 336.768C247.2 337.44 246.096 335.76 245.52 334.08C245.22 333.186 245.027 332.259 244.944 331.32C247.96 331.723 251.027 331.16 253.704 329.712Z" fill="#263238"/>
<path d="M251.76 334.992C251.169 335.824 250.328 336.446 249.36 336.768C247.2 337.44 246.096 335.76 245.52 334.08C246.515 333.521 247.666 333.307 248.796 333.472C249.925 333.637 250.967 334.171 251.76 334.992Z" fill="#FF9ABB"/>
<path d="M198.456 345.984C200.297 343.769 201.531 341.113 202.036 338.277C202.541 335.441 202.3 332.522 201.336 329.808C206.48 324.101 210.01 317.125 211.56 309.6C211.56 310.488 212.376 316.8 212.64 319.968C233.976 305.016 233.088 283.968 233.088 283.968C239.385 286.046 245.129 289.525 249.888 294.144C249.888 294.144 243.552 279.744 231.864 273.504C227.988 271.272 223.591 270.105 219.119 270.122C214.647 270.139 210.258 271.339 206.4 273.6C200.008 274.819 194.062 277.739 189.189 282.051C184.315 286.363 180.693 291.908 178.704 298.104C170.976 321.408 198.456 345.984 198.456 345.984Z" fill="#263238"/>
<path d="M228.6 307.968C225.787 311.718 222.43 315.026 218.64 317.784C224.377 313.012 228.673 306.738 231.048 299.664C232.02 296.662 232.608 293.549 232.8 290.4C233.177 286.932 232.859 283.424 231.864 280.08C231.864 279.84 232.152 279.72 232.248 280.08C233.608 283.265 234.42 286.657 234.648 290.112C234.715 293.547 234.146 296.965 232.968 300.192C231.914 303.052 230.451 305.744 228.624 308.184" fill="#263238"/>
<path d="M203.568 339.672C203.568 339.672 189.936 332.688 186.36 338.136C182.784 343.584 197.16 356.568 204.24 355.632C205.157 355.572 206.052 355.328 206.872 354.915C207.693 354.502 208.421 353.927 209.015 353.226C209.609 352.525 210.055 351.712 210.327 350.834C210.599 349.957 210.692 349.034 210.6 348.12L203.568 339.672Z" fill="#EB9481"/>
<path d="M190.56 341.76V341.928C195.6 341.4 199.824 344.088 203.448 347.256C202.985 346.975 202.468 346.796 201.93 346.731C201.393 346.666 200.847 346.718 200.331 346.881C199.815 347.045 199.34 347.317 198.938 347.68C198.536 348.043 198.216 348.487 198 348.984C198 349.128 198.144 349.248 198.24 349.152C198.853 348.529 199.643 348.112 200.503 347.957C201.362 347.803 202.249 347.918 203.04 348.288C204.347 348.91 205.586 349.666 206.736 350.544C207.12 350.808 207.696 350.256 207.336 349.92C204.576 344.496 196.536 339.264 190.56 341.76Z" fill="#263238"/>
<path d="M187.824 284.952C193.08 280.392 203.448 249.408 176.568 236.952C150.168 224.808 121.944 260.088 142.536 282.72C156.336 298.032 176.664 294.648 187.824 284.952Z" fill="#263238"/>
<path d="M204 425.832C241.2 465.264 291.912 494.112 305.304 494.952C320.064 495.864 360 486 396.36 471.528C403.8 468.576 375.648 413.136 367.56 415.992C346.392 423.504 307.224 440.52 298.992 439.608C291.36 438.768 250.224 418.2 223.776 409.056C198.456 400.296 186.72 407.472 204 425.832Z" fill="#EB9481"/>
<path d="M360.456 420C360.456 420 375.936 400.8 386.64 388.632C392.616 381.888 403.896 371.208 410.64 368.256C420.6 363.84 465.096 351.696 468.24 362.424C471.12 372.024 431.568 377.712 431.568 377.712C431.568 377.712 470.976 368.544 472.368 380.88C473.76 393.216 428.016 393.6 428.016 393.6C428.016 393.6 468.816 385.104 468.072 398.04C467.568 407.808 426.36 410.448 426.36 410.448C426.36 410.448 461.4 403.392 461.328 413.448C461.328 424.584 423.336 429.408 423.336 429.408C418.824 454.944 406.224 465.408 396.384 471.552C394.008 473.04 360.456 420 360.456 420Z" fill="#EB9481"/>
<path d="M417.6 380.016C422.208 378.768 426.84 377.496 431.52 376.656C436.2 375.816 440.928 375.168 445.656 374.76C451.845 374.123 458.086 374.204 464.256 375C453.216 374.4 436.392 377.112 431.712 377.952C427.032 378.792 422.304 379.368 417.624 380.184C417.6 380.208 417.6 380.04 417.6 380.016Z" fill="#263238"/>
<path d="M420.36 396.984C426.288 395.664 432.144 394.104 438.12 393.048C444.096 391.992 449.832 391.488 455.856 390.84C456.312 390.84 456.192 391.056 455.736 391.128C449.736 392.016 444.288 393.312 438.312 394.272C432.336 395.232 426.312 395.952 420.384 397.128C420.288 397.152 420.288 397.008 420.36 396.984Z" fill="#263238"/>
<path d="M420 411.96C429.063 409.693 438.336 408.366 447.672 408C448.128 408 447.936 408.288 447.456 408.336C438.264 409.488 431.04 410.328 420.144 412.248C420 412.32 420 412.032 420 411.96Z" fill="#263238"/>
<path d="M356.832 417.288L390.84 479.328C390.84 479.328 390.528 485.592 375.912 490.56C361.296 495.528 327.576 502.8 302.304 497.04C277.032 491.28 220.8 447.48 204.6 428.856C188.4 410.232 193.056 399 220.296 405.96C247.536 412.92 291.432 435.312 296.688 436.128C301.944 436.944 334.056 420.816 342.096 418.2C346.847 416.629 351.924 416.315 356.832 417.288Z" fill="#DBDBDB"/>
<path d="M286.008 492.864C280.402 490.017 275.019 486.752 269.904 483.096C265.8 480.336 232.776 454.848 228.744 452.016C225.662 450.919 222.695 449.52 219.888 447.84C219.768 447.84 219.888 447.6 219.888 447.648C222.144 448.704 224.424 449.64 226.68 450.6L225.12 449.496C219.12 445.304 213.264 440.888 207.552 436.248C207.552 436.248 207.552 435.984 207.552 436.08C218.04 443.064 257.376 472.872 267.888 479.808C273.072 483.24 278.232 486.744 283.728 489.672C289.417 492.594 295.482 494.718 301.752 495.984C308.813 497.362 315.943 498.355 323.112 498.96C323.226 498.96 323.336 499.006 323.417 499.087C323.498 499.168 323.544 499.277 323.544 499.392C323.544 499.507 323.498 499.616 323.417 499.697C323.336 499.778 323.226 499.824 323.112 499.824C310.584 499.392 297.6 498.36 286.008 492.864Z" fill="#263238"/>
<path d="M379.368 178.368C379.362 190.742 375.919 202.871 369.424 213.404C362.929 223.936 353.637 232.458 342.583 238.02C331.53 243.582 319.149 245.965 306.82 244.903C294.492 243.842 282.7 239.377 272.76 232.008L240 240.36L253.608 209.88C248.828 200.927 246.151 191.002 245.781 180.86C245.41 170.717 247.356 160.624 251.47 151.346C255.584 142.068 261.759 133.85 269.525 127.315C277.29 120.781 286.443 116.102 296.288 113.635C306.132 111.167 316.41 110.975 326.34 113.074C336.27 115.172 345.591 119.507 353.595 125.747C361.599 131.987 368.076 139.969 372.533 149.087C376.991 158.205 379.312 168.219 379.32 178.368H379.368Z" fill="white"/>
<path d="M379.368 178.368C379.008 234.744 314.832 264.528 272.976 232.824L240.312 241.368L238.2 241.92L239.088 239.928L252.6 209.4V210.432C237.264 183.12 244.68 146.232 268.944 126.624C312.816 90.408 379.128 121.512 379.344 178.368H379.368ZM379.368 178.368C379.584 135.672 337.8 103.032 296.496 114.288C255.264 124.56 234.336 172.8 254.952 209.832L254.712 210.36L241.008 240.792L239.784 239.328L272.544 231.168C317.184 263.472 378.336 234.048 379.368 178.368Z" fill="#263238"/>
<path d="M303.888 221.088L273.96 190.8L284.016 180.864L301.488 198.552L337.824 141.6L349.752 149.208L303.888 221.088Z" fill="#26315F"/>
</svg>
